<?xml version="1.0" encoding="UTF-8"?>
<svg version="1.1" xmlns="http://www.w3.org/2000/svg" width="512" height="512">
<path d="M0 0 C7.37573816 4.36130604 13.06415326 10.44473439 16.55859375 18.265625 C17.24609375 21.328125 17.24609375 21.328125 17.24609375 29.328125 C55.85609375 29.328125 94.46609375 29.328125 134.24609375 29.328125 C134.24609375 27.018125 134.24609375 24.708125 134.24609375 22.328125 C136.03758195 14.62001129 140.30295289 8.46129777 146.24609375 3.328125 C155.69661689 -2.53819974 164.80915911 -4.05062444 175.8515625 -2.24609375 C183.93577614 0.08616611 190.21347396 5.21325154 194.68359375 12.265625 C197.77036876 17.88338451 199.24609375 22.86108179 199.24609375 29.328125 C200.06698486 29.31241455 200.88787598 29.2967041 201.73364258 29.28051758 C204.83306462 29.22882783 207.93226413 29.19150592 211.03198242 29.16333008 C213.01170611 29.1411503 214.99123039 29.10299503 216.97070312 29.06445312 C233.13863787 28.94165868 247.13574621 33.50115127 258.9921875 44.84375 C267.15137855 53.83724308 273.34028986 65.63251529 273.39326477 77.93858337 C273.40399773 79.65248009 273.40399773 79.65248009 273.41494751 81.40100098 C273.41763641 82.65046509 273.42032532 83.8999292 273.4230957 85.18725586 C273.4296669 86.5062941 273.4362381 87.82533234 273.44300842 89.18434143 C273.46400246 93.55387159 273.47440337 97.92340193 273.484375 102.29296875 C273.48842367 103.79854411 273.49254063 105.3041193 273.49672508 106.80969429 C273.51576298 113.88060161 273.52999947 120.95149854 273.53833705 128.02242655 C273.54811815 136.18228169 273.57446602 144.3418662 273.61483794 152.50162596 C273.64498682 158.81171364 273.65980457 165.12172365 273.66311806 171.43188196 C273.66546908 175.19974036 273.67443652 178.96730916 273.69957924 182.73509026 C273.7228452 186.27858947 273.72709956 189.82160803 273.71681786 193.3651638 C273.7160859 195.28339118 273.73518542 197.20159408 273.75488281 199.11972046 C273.74446709 200.83784691 273.74446709 200.83784691 273.73384094 202.59068298 C273.7362293 203.58378951 273.73861765 204.57689604 273.74107838 205.6000967 C273.10754052 209.09173888 271.66002313 210.7778418 269.24609375 213.328125 C265.17715024 215.5429726 261.8584955 215.48875497 257.43359375 214.328125 C254.24609375 212.328125 254.24609375 212.328125 251.24609375 206.328125 C251.24609375 183.228125 251.24609375 160.128125 251.24609375 136.328125 C135.41609375 136.328125 19.58609375 136.328125 -99.75390625 136.328125 C-99.65078125 173.741875 -99.54765625 211.155625 -99.44140625 249.703125 C-99.41651123 261.51528809 -99.39161621 273.32745117 -99.3659668 285.49755859 C-99.3294012 296.08870671 -99.3294012 296.08870671 -99.28889465 306.67984009 C-99.27096272 311.39607743 -99.26135289 316.11225285 -99.25679016 320.82852173 C-99.25069312 326.84832337 -99.23033608 332.86791973 -99.19974482 338.88764501 C-99.19094158 341.09444154 -99.18710713 343.30126495 -99.18886697 345.50807834 C-99.19052743 348.49556415 -99.1738012 351.48241905 -99.15263367 354.46981812 C-99.15748181 355.32757654 -99.16232996 356.18533497 -99.16732502 357.06908607 C-99.05283113 366.92842322 -96.40692531 375.01150557 -89.75390625 382.328125 C-81.96059144 389.91080968 -72.18740245 391.45306029 -61.68173218 391.45269775 C-61.00549289 391.4541079 -60.32925361 391.45551805 -59.63252223 391.45697093 C-57.38568996 391.46059631 -55.13892192 391.45729949 -52.89208984 391.45410156 C-51.27357433 391.45549768 -49.65505919 391.45739788 -48.0365448 391.45976257 C-44.56079185 391.46424603 -41.08505066 391.46611535 -37.60929489 391.46622467 C-32.11292292 391.46736796 -26.61661764 391.48022611 -21.12026978 391.49578857 C-20.19155984 391.49836143 -19.26284991 391.50093428 -18.30599725 391.5035851 C-16.40762959 391.50885105 -14.50926199 391.51413653 -12.61089444 391.51944113 C0.17868538 391.55453011 12.96818048 391.58109765 25.7578125 391.57861328 C34.39527786 391.5770257 43.03251414 391.59303091 51.66990602 391.62931991 C56.23807946 391.64778766 60.80587027 391.65711505 65.37407303 391.64484406 C69.66709827 391.63342224 73.95943702 391.64507545 78.25237083 391.67447853 C79.82734498 391.68112693 81.40238181 391.67923884 82.97733116 391.66818047 C85.12833922 391.65432997 87.27702224 391.67117275 89.42788696 391.69561768 C90.63095301 391.69708424 91.83401905 391.6985508 93.07354164 391.7000618 C97.15515302 392.50808947 98.63432405 394.16730885 101.24609375 397.328125 C102.77824263 400.39242276 102.47547923 402.9446892 102.24609375 406.328125 C100.42162034 410.55322132 98.33456793 412.31944171 94.24609375 414.328125 C91.05182934 414.70844173 91.05182934 414.70844173 87.3745575 414.71580505 C86.35602769 414.72388336 86.35602769 414.72388336 85.31692153 414.73212487 C83.04792781 414.74639978 80.77951793 414.73930187 78.51049805 414.73217773 C76.8805647 414.7378821 75.25063534 414.74484663 73.62071228 414.75297546 C69.19439786 414.77092892 64.7682815 414.76973266 60.3419416 414.76403308 C56.63756 414.7609399 52.93321637 414.76703616 49.22884017 414.77307183 C40.47601431 414.78712684 31.723286 414.78555176 22.97045898 414.77416992 C13.97341831 414.76272812 4.9766771 414.77669553 -4.02032405 414.8035664 C-11.76500575 414.8258219 -19.50959417 414.83233753 -27.25430554 414.82648998 C-31.87032203 414.82313774 -36.48614731 414.82541719 -41.10213661 414.84274101 C-45.45497806 414.85836224 -49.80738262 414.854089 -54.16020775 414.83543587 C-55.74508463 414.8317894 -57.32999494 414.83474108 -58.9148407 414.84532166 C-76.69618088 414.95482384 -92.94372569 411.69386544 -106.50390625 399.265625 C-118.12485544 386.84177387 -122.23299411 372.543041 -122.1415863 355.81117249 C-122.14697184 354.60952735 -122.15235738 353.40788221 -122.15790612 352.16982359 C-122.16965013 348.86986226 -122.16815607 345.57022973 -122.1607393 342.27026618 C-122.15597843 338.69757472 -122.16854303 335.12493562 -122.17875671 331.55226135 C-122.19589276 324.56710262 -122.19679563 317.58203404 -122.19154381 310.59685976 C-122.18749146 304.91599354 -122.18895827 299.23515383 -122.19429207 293.55428886 C-122.19504049 292.74371194 -122.19578891 291.93313501 -122.19656001 291.09799514 C-122.19809159 289.45097005 -122.19962994 287.80394497 -122.20117498 286.15691989 C-122.21488102 270.73564345 -122.20947551 255.31441784 -122.19798977 239.89314257 C-122.18805755 225.80560961 -122.20100122 211.718208 -122.22492396 197.63069529 C-122.24934449 183.14008995 -122.25891569 168.64954572 -122.25227123 154.15892023 C-122.24878581 146.03371925 -122.25096636 137.90861926 -122.26852226 129.78343391 C-122.28328118 122.86741946 -122.28383162 115.95157713 -122.26645135 109.03556592 C-122.25796951 105.51182556 -122.25572207 101.9883922 -122.27110291 98.46466827 C-122.28434656 94.63351252 -122.27273375 90.80318207 -122.25511169 86.97206116 C-122.2647167 85.87417473 -122.27432171 84.77628831 -122.28421777 83.6451326 C-122.11854954 66.04569832 -115.04711834 53.64381135 -102.96484375 41.53515625 C-91.12938828 30.62522218 -76.52222173 28.84656318 -61.06640625 29.140625 C-59.67123857 29.15571403 -58.27605491 29.16939491 -56.88085938 29.18164062 C-53.50479041 29.21668632 -50.12956349 29.26581992 -46.75390625 29.328125 C-46.78613281 28.1009375 -46.81835938 26.87375 -46.8515625 25.609375 C-46.8393976 17.71261406 -42.95103553 11.78360443 -37.6796875 6.1171875 C-27.42937735 -3.40541301 -12.82698248 -5.98171268 0 0 Z M-21.75390625 22.328125 C-26.45245057 27.34132941 -25.26701295 33.72186136 -25.25390625 40.203125 C-25.28226562 41.47027344 -25.310625 42.73742187 -25.33984375 44.04296875 C-25.55505759 51.56582425 -25.55505759 51.56582425 -22.44140625 58.14453125 C-19.07442464 60.88020381 -17.07769167 61.40533545 -12.75390625 61.328125 C-9.01746186 59.71466038 -6.8575068 57.78308919 -4.75390625 54.328125 C-4.09443647 49.72793987 -4.24451819 45.09552271 -4.25390625 40.453125 C-4.21136719 38.55240234 -4.21136719 38.55240234 -4.16796875 36.61328125 C-3.95275491 29.09042575 -3.95275491 29.09042575 -7.06640625 22.51171875 C-12.11975068 18.4058764 -16.69294678 18.25124098 -21.75390625 22.328125 Z M158.24609375 23.328125 C154.99476253 28.3677576 155.87740913 34.42455545 155.87109375 40.203125 C155.84660156 41.37488281 155.82210938 42.54664063 155.796875 43.75390625 C155.77488172 50.21259814 155.77776777 54.47560651 160.24609375 59.328125 C162.9047312 61.43669953 164.23310582 61.32836114 167.68359375 61.265625 C171.95592451 60.14132743 173.56285817 58.80054751 176.24609375 55.328125 C177.70896403 50.49789295 177.42995156 45.39134984 177.43359375 40.390625 C177.45196289 39.06901367 177.45196289 39.06901367 177.47070312 37.72070312 C177.48394226 31.82928969 177.14528404 26.9307191 173.55859375 22.015625 C167.85641489 17.85457556 163.35545909 18.93169436 158.24609375 23.328125 Z M-93.14453125 63.33203125 C-104.31654598 77.1885835 -99.75390625 98.98660182 -99.75390625 114.328125 C16.07609375 114.328125 131.90609375 114.328125 251.24609375 114.328125 C253.64824573 85.4618573 253.64824573 85.4618573 243.3359375 61.40625 C236.25925797 54.36925278 227.91071265 51.25447382 218.09375 51.1328125 C215.83194827 51.14600085 213.57018689 51.16969611 211.30859375 51.203125 C209.56739258 51.21666016 209.56739258 51.21666016 207.79101562 51.23046875 C204.94249267 51.25391338 202.09440297 51.28672978 199.24609375 51.328125 C199.06071045 52.1320166 198.87532715 52.9359082 198.68432617 53.76416016 C198.43013916 54.82940918 198.17595215 55.8946582 197.9140625 56.9921875 C197.54317505 58.5692749 197.54317505 58.5692749 197.16479492 60.17822266 C194.69827998 68.63503258 189.93788111 75.02810365 182.24609375 79.328125 C173.59116081 83.65559147 163.55163802 83.69958654 154.43359375 80.765625 C146.13657366 77.29947541 141.19645856 72.2552647 137.25390625 64.24609375 C135.81057668 60.06715116 135.11315691 55.66344078 134.24609375 51.328125 C95.63609375 51.328125 57.02609375 51.328125 17.24609375 51.328125 C16.58609375 54.958125 15.92609375 58.588125 15.24609375 62.328125 C11.8564139 70.86509648 7.04886002 76.30019918 -1.31640625 80.265625 C-10.37755953 83.67062767 -19.13025297 83.67062767 -28.19140625 80.265625 C-36.32219643 76.41134896 -41.71681736 70.82478447 -44.75390625 62.328125 C-45.16245961 60.41436633 -45.52973161 58.49141766 -45.859375 56.5625 C-46.02977295 55.57991211 -46.2001709 54.59732422 -46.37573242 53.58496094 C-46.50052979 52.84020508 -46.62532715 52.09544922 -46.75390625 51.328125 C-50.71209551 51.23991393 -54.67002687 51.18733088 -58.62890625 51.140625 C-59.7375 51.11548828 -60.84609375 51.09035156 -61.98828125 51.06445312 C-74.80942033 50.95132543 -84.09964802 54.02700757 -93.14453125 63.33203125 Z " fill="#000000" transform="translate(142.75390625,23.671875)"/>
<path d="M0 0 C24.50204271 19.3166831 41.50156952 46.42900564 45.90234375 77.578125 C49.58919339 109.95524103 42.06099321 141.85829251 21.9375 167.6875 C1.73379279 192.7232111 -26.4912755 208.64164914 -58.625 212.3125 C-90.5071414 214.55714901 -122.37368445 206.93340036 -147.00390625 185.75048828 C-169.72789951 165.59321112 -184.22944328 140.65933033 -188.625 110.3125 C-188.83520525 106.02208343 -188.85301017 101.73448805 -188.86523438 97.43920898 C-188.87482727 95.41151069 -188.90584804 93.38487816 -188.9375 91.35742188 C-189.18595733 60.76131006 -175.67396277 31.97539539 -154.58984375 10.1875 C-113.85490907 -30.20535427 -45.70127702 -34.64083477 0 0 Z M-142.14306641 29.93505859 C-153.07470683 42.35523192 -160.19348425 56.43439701 -164.625 72.3125 C-164.87121094 73.17488281 -165.11742187 74.03726563 -165.37109375 74.92578125 C-170.92783395 98.95389232 -164.96890066 125.19829862 -152.29223633 145.93603516 C-148.11752481 152.42083987 -143.09467332 157.90524806 -137.625 163.3125 C-136.43970703 164.51326172 -136.43970703 164.51326172 -135.23046875 165.73828125 C-117.13116797 183.11721185 -92.50379431 190.76901086 -67.75 190.5234375 C-42.42131734 189.54460959 -18.00703445 177.95321243 -0.5859375 159.61328125 C16.78920378 139.22691031 26.10392702 114.31036047 24.375 87.3125 C21.41402068 60.91800335 9.68164805 37.63775751 -10.625 20.3125 C-50.22578198 -11.13517981 -107.50779876 -7.08423841 -142.14306641 29.93505859 Z " fill="#000000" transform="translate(444.625,278.6875)"/>
<path d="M0 0 C0.77470642 -0.00960754 1.54941284 -0.01921509 2.34759521 -0.02911377 C3.17680481 -0.03336365 4.0060144 -0.03761353 4.86035156 -0.04199219 C5.72356018 -0.04769226 6.5867688 -0.05339233 7.47613525 -0.05926514 C9.3017861 -0.06870013 11.12745385 -0.07524315 12.953125 -0.07910156 C15.72719568 -0.08878418 18.50051784 -0.11981202 21.27441406 -0.15136719 C23.05305552 -0.15790027 24.83170225 -0.16314954 26.61035156 -0.16699219 C27.43146423 -0.17933899 28.2525769 -0.19168579 29.09857178 -0.20440674 C36.71302028 -0.17538188 43.45244317 1.61259942 49.00097656 7.16113281 C52.31039659 11.94637528 54.10362129 16.35603313 54.16210938 22.16015625 C54.17171692 22.93486267 54.18132446 23.70956909 54.19122314 24.50775146 C54.19547302 25.33696106 54.1997229 26.16617065 54.20410156 27.02050781 C54.20980164 27.88371643 54.21550171 28.74692505 54.22137451 29.6362915 C54.23080951 31.46194235 54.23735253 33.2876101 54.24121094 35.11328125 C54.25089356 37.88735193 54.2819214 40.66067409 54.31347656 43.43457031 C54.32000964 45.21321177 54.32525892 46.9918585 54.32910156 48.77050781 C54.34144836 49.59162048 54.35379517 50.41273315 54.36651611 51.25872803 C54.34074142 58.02052016 53.1612908 63.59211047 48.68847656 68.91113281 C43.29192477 73.42917617 39.07571944 76.25098336 32.00195312 76.32226562 C31.2272467 76.33187317 30.45254028 76.34148071 29.65435791 76.35137939 C28.82514832 76.35562927 27.99593872 76.35987915 27.14160156 76.36425781 C25.84678864 76.37280792 25.84678864 76.37280792 24.52581787 76.38153076 C22.70016703 76.39096576 20.87449927 76.39750878 19.04882812 76.40136719 C16.27475745 76.41104981 13.50143529 76.44207765 10.72753906 76.47363281 C8.9488976 76.48016589 7.17025087 76.48541517 5.39160156 76.48925781 C4.57048889 76.50160461 3.74937622 76.51395142 2.90338135 76.52667236 C-4.71106715 76.4976475 -11.45049005 74.7096662 -16.99902344 69.16113281 C-20.30844346 64.37589034 -22.10166816 59.9662325 -22.16015625 54.16210938 C-22.16976379 53.38740295 -22.17937134 52.61269653 -22.18927002 51.81451416 C-22.1935199 50.98530457 -22.19776978 50.15609497 -22.20214844 49.30175781 C-22.20784851 48.43854919 -22.21354858 47.57534058 -22.21942139 46.68597412 C-22.22885638 44.86032328 -22.2353994 43.03465552 -22.23925781 41.20898438 C-22.24894043 38.4349137 -22.27996827 35.66159154 -22.31152344 32.88769531 C-22.31805652 31.10905385 -22.32330579 29.33040712 -22.32714844 27.55175781 C-22.33949524 26.73064514 -22.35184204 25.90953247 -22.36456299 25.0635376 C-22.33553813 17.4490891 -20.54755683 10.7096662 -14.99902344 5.16113281 C-10.21378097 1.85171279 -5.80412312 0.05848809 0 0 Z M0.00097656 22.16113281 C0.00097656 32.72113281 0.00097656 43.28113281 0.00097656 54.16113281 C10.56097656 54.16113281 21.12097656 54.16113281 32.00097656 54.16113281 C32.00097656 43.60113281 32.00097656 33.04113281 32.00097656 22.16113281 C21.44097656 22.16113281 10.88097656 22.16113281 0.00097656 22.16113281 Z " fill="#000000" transform="translate(95.9990234375,297.8388671875)"/>
<path d="M0 0 C0.89483093 -0.0159874 1.78966187 -0.03197479 2.71160889 -0.04844666 C3.67206116 -0.05380936 4.63251343 -0.05917206 5.62207031 -0.06469727 C7.11664764 -0.07823997 7.11664764 -0.07823997 8.64141846 -0.09205627 C10.74952187 -0.10655647 12.85767027 -0.11544494 14.96582031 -0.11914062 C18.17493606 -0.13101009 21.38211178 -0.18017622 24.59082031 -0.23071289 C26.6428943 -0.24018076 28.69498006 -0.24741406 30.74707031 -0.25219727 C32.17560333 -0.28149574 32.17560333 -0.28149574 33.63299561 -0.31138611 C40.92039713 -0.26257752 45.67847567 1.73567864 50.9743042 6.74928284 C56.28768886 12.62796333 56.76551401 18.76257732 56.78613281 26.29077148 C56.79611801 27.57422455 56.79611801 27.57422455 56.80630493 28.88360596 C56.81639624 30.68890242 56.82112305 32.49423591 56.82080078 34.29956055 C56.82516001 37.03425019 56.8614773 39.76730582 56.89941406 42.50170898 C57.02924433 62.30201321 57.02924433 62.30201321 50.69970703 69.21948242 C44.576356 74.97950871 38.7354309 75.62251466 30.61816406 75.64233398 C29.19229729 75.65231918 29.19229729 75.65231918 27.73762512 75.6625061 C25.72964405 75.67261327 23.72162953 75.67732372 21.71362305 75.67700195 C18.65844653 75.68136684 15.60472508 75.71768427 12.54980469 75.75561523 C10.59342939 75.76148563 8.63704727 75.76545353 6.68066406 75.76733398 C5.77519333 75.78170502 4.8697226 75.79607605 3.93681335 75.81088257 C-3.62892371 75.75701131 -8.91839995 73.87932556 -14.36230469 68.55639648 C-18.86083236 61.87286966 -20.01207398 55.95903019 -19.98339844 48.09155273 C-19.98864029 47.23637558 -19.99388214 46.38119843 -19.99928284 45.50010681 C-20.00566814 43.70255614 -20.00441164 41.90496349 -19.99584961 40.10742188 C-19.98733734 37.3793596 -20.01615231 34.65339336 -20.04785156 31.92553711 C-20.04946401 30.16837627 -20.0488852 28.41121177 -20.04589844 26.65405273 C-20.05713242 25.85064957 -20.06836639 25.0472464 -20.0799408 24.21949768 C-19.9995903 17.58715267 -18.41759398 11.35455236 -13.77049255 6.41517639 C-9.55533368 2.62726366 -5.79156356 0.07858098 0 0 Z M2.45019531 22.30639648 C2.45019531 32.53639648 2.45019531 42.76639648 2.45019531 53.30639648 C13.01019531 53.30639648 23.57019531 53.30639648 34.45019531 53.30639648 C34.45019531 43.07639648 34.45019531 32.84639648 34.45019531 22.30639648 C23.89019531 22.30639648 13.33019531 22.30639648 2.45019531 22.30639648 Z " fill="#000000" transform="translate(93.5498046875,191.693603515625)"/>
<path d="M0 0 C0.89490646 -0.01606293 1.78981293 -0.03212585 2.71183777 -0.04867554 C6.80918481 -0.09333152 10.90637238 -0.13420496 15.00390625 -0.15722656 C17.15994073 -0.17376032 19.31592098 -0.20101602 21.47167969 -0.23925781 C24.58988716 -0.29425265 27.70681116 -0.31593709 30.82543945 -0.33056641 C31.78093185 -0.35323578 32.73642426 -0.37590515 33.72087097 -0.39926147 C40.25197005 -0.37882166 44.50092126 1.00991163 49.5637207 5.19287109 C53.44544958 9.38105225 55.80474405 13.00576015 55.83837891 18.77441406 C55.84791092 19.67570038 55.85744293 20.57698669 55.86726379 21.50558472 C55.86635239 22.4723111 55.86544098 23.43903748 55.86450195 24.43505859 C55.86878708 25.43618683 55.8730722 26.43731506 55.87748718 27.46878052 C55.88322655 29.58529912 55.88373364 31.70183744 55.87939453 33.81835938 C55.87623913 37.04900982 55.89968328 40.27874039 55.92504883 43.50927734 C55.92732238 45.56786994 55.92802506 47.626465 55.92700195 49.68505859 C55.9362117 50.64773651 55.94542145 51.61041443 55.95491028 52.6022644 C55.90883129 59.31638623 54.76839791 63.54725844 50.3762207 68.81787109 C43.86250192 74.31834473 38.07783222 75.80211255 29.6574707 75.72412109 C28.27126526 75.72986145 28.27126526 75.72986145 26.85705566 75.73571777 C24.91405134 75.73842516 22.97100983 75.73114665 21.02807617 75.71435547 C18.07167496 75.69292874 15.11770352 75.71419699 12.16137695 75.73974609 C10.26423623 75.73710261 8.367097 75.7319772 6.4699707 75.72412109 C5.59578491 75.73221802 4.72159912 75.74031494 3.82092285 75.74865723 C-2.98189419 75.64586786 -8.26233304 73.93177839 -13.4597168 69.44677734 C-13.90573242 68.88861328 -14.35174805 68.33044922 -14.8112793 67.75537109 C-15.27276367 67.19978516 -15.73424805 66.64419922 -16.2097168 66.07177734 C-19.69026942 60.74010278 -19.7698415 55.83245833 -19.80737305 49.64990234 C-19.81640152 48.72626389 -19.82542999 47.80262543 -19.83473206 46.85099792 C-19.84921436 44.89850085 -19.85811627 42.94595548 -19.86181641 40.9934082 C-19.87367128 38.0323513 -19.92284099 35.07340796 -19.97338867 32.11279297 C-20.13845737 13.03898365 -20.13845737 13.03898365 -14.4362793 6.19287109 C-10.11003836 2.16196725 -5.9148746 0.09672984 0 0 Z M2.5637207 22.19287109 C2.5637207 32.42287109 2.5637207 42.65287109 2.5637207 53.19287109 C12.7937207 53.19287109 23.0237207 53.19287109 33.5637207 53.19287109 C33.5637207 42.96287109 33.5637207 32.73287109 33.5637207 22.19287109 C23.3337207 22.19287109 13.1037207 22.19287109 2.5637207 22.19287109 Z " fill="#000000" transform="translate(200.436279296875,191.80712890625)"/>
<path d="M0 0 C1.29343826 -0.00430527 1.29343826 -0.00430527 2.61300659 -0.00869751 C4.42316348 -0.01072635 6.23334289 -0.00527968 8.04345703 0.00732422 C10.80421063 0.02343472 13.56350925 0.00741537 16.32421875 -0.01171875 C18.09114904 -0.00973688 19.85807843 -0.00589436 21.625 0 C22.44388702 -0.00607269 23.26277405 -0.01214539 24.10647583 -0.0184021 C30.23711611 0.05644638 34.42704407 1.32363434 39.0546875 5.5859375 C41.15830337 9.22681113 41.62187695 12.34464761 40.6796875 16.3984375 C38.91820315 19.4144107 36.85227872 21.81214189 33.6796875 23.3984375 C30.76038955 23.41509888 27.86932133 23.37089356 24.953125 23.27734375 C23.65890121 23.24192726 23.65890121 23.24192726 22.33853149 23.20579529 C19.57708544 23.12909453 16.81591532 23.04509788 14.0546875 22.9609375 C12.18490943 22.90772323 10.31511781 22.85498279 8.4453125 22.80273438 C3.85654493 22.67436299 -0.73177729 22.53613592 -5.3203125 22.3984375 C-5.3203125 32.9584375 -5.3203125 43.5184375 -5.3203125 54.3984375 C3.01163891 54.24061658 3.01163891 54.24061658 11.3425293 54.03808594 C12.38578369 54.0280957 13.42903809 54.01810547 14.50390625 54.0078125 C16.09851685 53.9763916 16.09851685 53.9763916 17.7253418 53.94433594 C21.40779377 54.51035202 23.02467663 55.83977426 25.6796875 58.3984375 C27.51517022 61.48538571 27.68175751 63.28251694 27.6171875 66.8984375 C26.4974869 71.07865307 25.01181914 72.7009976 21.6796875 75.3984375 C16.35828861 77.17223713 10.6866249 76.66837939 5.1171875 76.7109375 C3.87904297 76.73994141 2.64089844 76.76894531 1.36523438 76.79882812 C-6.86547047 76.85547141 -14.87520924 76.41859584 -21.25610352 70.64770508 C-26.97108399 64.48494558 -27.63640016 58.69617302 -27.65625 50.56640625 C-27.6629068 49.6158284 -27.6695636 48.66525055 -27.67642212 47.68586731 C-27.68652929 45.67788624 -27.69123974 43.66987171 -27.69091797 41.66186523 C-27.69528285 38.60668872 -27.73160029 35.55296726 -27.76953125 32.49804688 C-27.77540165 30.54167157 -27.77936955 28.58528945 -27.78125 26.62890625 C-27.79562103 25.72343552 -27.80999207 24.81796478 -27.82479858 23.88505554 C-27.77092733 16.31931847 -25.89324158 11.02984224 -20.5703125 5.5859375 C-13.83579977 1.05309239 -7.92390593 -0.05905396 0 0 Z " fill="#000000" transform="translate(208.3203125,297.6015625)"/>
<path d="M0 0 C0.90128632 -0.00953201 1.80257263 -0.01906403 2.73117065 -0.02888489 C4.18126022 -0.02751778 4.18126022 -0.02751778 5.66064453 -0.02612305 C6.66177277 -0.03040817 7.662901 -0.0346933 8.69436646 -0.03910828 C10.81088505 -0.04484765 12.92742338 -0.04535474 15.04394531 -0.04101562 C18.27459576 -0.03786022 21.50432633 -0.06130437 24.73486328 -0.08666992 C26.79345588 -0.08894347 28.85205093 -0.08964615 30.91064453 -0.08862305 C31.87332245 -0.09783279 32.83600037 -0.10704254 33.82785034 -0.11653137 C40.54197217 -0.07045239 44.77284438 1.06998099 50.04345703 5.4621582 C55.77480071 12.24927572 57.04816369 18.18885447 56.85595703 26.9621582 C56.86304688 27.88577148 56.87013672 28.80938477 56.87744141 29.76098633 C56.83120767 34.70088351 56.71316932 38.32256865 53.41845703 42.2746582 C49.97935993 44.61949713 48.03450193 45.28546601 43.85595703 45.2121582 C40.10118178 44.18812859 38.15624593 43.0124471 35.41845703 40.2746582 C33.51816466 34.57378108 34.41845703 28.28391033 34.41845703 22.2746582 C24.18845703 22.2746582 13.95845703 22.2746582 3.41845703 22.2746582 C3.47066406 25.76092773 3.47066406 25.76092773 3.52392578 29.31762695 C3.54734748 31.57811251 3.5655491 33.83858436 3.58325195 36.09912109 C3.59830325 37.66558928 3.6187491 39.23201557 3.64477539 40.79833984 C3.68132136 43.05487427 3.69821964 45.31084973 3.71142578 47.56762695 C3.72690964 48.26365524 3.74239349 48.95968353 3.75834656 49.67680359 C3.76020283 55.08611222 2.36875748 58.17989105 -1.26904297 62.0871582 C-4.66118697 63.82906999 -7.88923101 63.82520174 -11.58154297 63.2746582 C-15.16707178 61.63778635 -16.37469352 60.58493238 -18.58154297 57.2746582 C-18.85569763 55.33528137 -18.85569763 55.33528137 -18.88793945 53.11376953 C-18.90392685 52.27892532 -18.91991425 51.44408112 -18.93638611 50.5839386 C-18.94174881 49.68394638 -18.94711151 48.78395416 -18.95263672 47.85668945 C-18.96166519 46.92547775 -18.97069366 45.99426605 -18.97999573 45.03483582 C-18.99450897 43.06199358 -19.00338763 41.0891031 -19.00708008 39.11621094 C-19.01893123 36.11545102 -19.06806708 33.11677813 -19.11865234 30.11645508 C-19.12812218 28.1965432 -19.13535453 26.27661873 -19.14013672 24.35668945 C-19.15966904 23.46681839 -19.17920135 22.57694733 -19.19932556 21.66011047 C-19.15406219 15.32530126 -17.58926722 11.19970817 -13.58154297 6.2746582 C-9.39336181 2.39292933 -5.76865391 0.03363486 0 0 Z " fill="#000000" transform="translate(306.58154296875,191.725341796875)"/>
<path d="M0 0 C5.5 3 5.5 3 7 6 C7.0278831 7.60219463 6.98994293 9.20574466 6.91967773 10.80664062 C6.70408234 16.47352457 6.59201122 22.13576178 6.51391602 27.80615234 C6.46354725 30.2409108 6.38286458 32.67525798 6.26977539 35.10791016 C5.35856443 50.83092017 5.35856443 50.83092017 12.00830078 64.5234375 C15.76887123 68.44867805 19.86311468 71.86366244 24.09109497 75.26893616 C27.14950347 78.04241116 28.77720014 81.07486997 29.25 85.16015625 C28.76491208 88.85137212 28.12793953 90.8177831 25.9375 93.9375 C22.37945451 96.43570215 19.36229116 97.67170227 15 97 C7.98041379 93.87725175 3.08743008 88.53265942 -2.25 83.125 C-3.59578125 81.79662109 -3.59578125 81.79662109 -4.96875 80.44140625 C-5.82984375 79.57644531 -6.6909375 78.71148437 -7.578125 77.8203125 C-8.35575195 77.03930176 -9.13337891 76.25829102 -9.93457031 75.45361328 C-15.7090769 68.59382709 -15.45403489 62.35830474 -15.43359375 53.71875 C-15.4388356 52.43190308 -15.44407745 51.14505615 -15.44947815 49.81921387 C-15.45838548 47.10252028 -15.45601306 44.38612105 -15.44604492 41.66943359 C-15.43454832 38.1991889 -15.45478748 34.72996078 -15.48396206 31.25984955 C-15.50678418 27.93359674 -15.49985533 24.60757913 -15.49609375 21.28125 C-15.50732773 20.04048706 -15.51856171 18.79972412 -15.53013611 17.5213623 C-15.44295675 6.72815504 -15.44295675 6.72815504 -11 2 C-7.29825261 -0.4678316 -4.29506525 -0.68072732 0 0 Z " fill="#000000" transform="translate(377,309)"/>
</svg>
