<?xml version="1.0" encoding="UTF-8"?>
<svg version="1.1" xmlns="http://www.w3.org/2000/svg" width="512" height="512">
<path d="M0 0 C1.05550506 -0.00679667 1.05550506 -0.00679667 2.13233346 -0.01373065 C4.47868613 -0.0263406 6.82480565 -0.02475644 9.17118835 -0.02310181 C10.85875749 -0.02908964 12.5463239 -0.03589577 14.23388672 -0.04345703 C18.81305391 -0.06110936 23.39214631 -0.0658124 27.97134423 -0.0670886 C30.83894831 -0.06851247 33.70653353 -0.07278677 36.57413292 -0.07808304 C46.59835892 -0.09658861 56.62253178 -0.10475396 66.64677429 -0.10317993 C75.95565273 -0.10198198 85.26429802 -0.12301472 94.57311755 -0.15466726 C102.58873552 -0.18094013 110.60427793 -0.19154247 118.61993855 -0.19026911 C123.39639078 -0.18976222 128.17263625 -0.1952914 132.94904518 -0.21662521 C137.45290287 -0.23619108 141.95636073 -0.23600865 146.46023369 -0.22159195 C148.09952513 -0.21952448 149.7388428 -0.22407917 151.3780899 -0.23631287 C172.35441657 -0.38252207 190.50407179 4.39288159 206.78715515 18.26742554 C207.77715515 18.98930054 208.76715515 19.71117554 209.78715515 20.45492554 C222.486696 31.28999086 230.54605035 48.96889599 232.78715515 65.26742554 C233.46736353 74.18616221 233.34360457 83.14484044 233.31005383 92.08374166 C233.30090739 95.69664524 233.31501999 99.30947498 233.32597351 102.92236328 C233.34366221 109.97886404 233.33996215 117.03519361 233.32832295 124.09170079 C233.3192506 129.83204239 233.31808096 135.57233637 233.32241821 141.31268311 C233.32303115 142.13295335 233.32364408 142.95322359 233.32427558 143.79835051 C233.32555462 145.46526028 233.32685148 147.13217004 233.32816595 148.79907978 C233.33954348 164.39121179 233.3265026 179.98324938 233.30496448 195.5753659 C233.28709607 208.9236127 233.29020098 222.27172031 233.30863953 235.6199646 C233.33009639 251.16030444 233.3384451 266.70056175 233.32619047 282.24091434 C233.32491642 283.90133221 233.32365893 285.56175008 233.32241821 287.22216797 C233.32149256 288.44726846 233.32149256 288.44726846 233.32054821 289.69711846 C233.31710972 295.42356724 233.32289107 301.14996321 233.33233643 306.87640381 C233.34361152 313.86507327 233.34040158 320.85356326 233.31921345 327.84221244 C233.30877647 331.40077435 233.30445357 334.9590382 233.31781006 338.5175972 C233.37669894 355.61936447 233.40114884 372.02588717 225.16215515 387.51742554 C224.82297058 388.17162476 224.48378601 388.82582397 224.13432312 389.49984741 C214.6333642 407.08627251 199.05502981 418.61605478 180.47465515 425.18930054 C170.19775089 428.19398865 160.41850993 428.56009442 149.79032898 428.54208374 C148.08594541 428.54643748 146.3815638 428.55162282 144.67718506 428.55757141 C140.07412595 428.57089634 135.47114927 428.57154774 130.86807466 428.56900811 C127.01845257 428.56793472 123.1688469 428.57283076 119.31922835 428.57761353 C110.23829353 428.58868457 101.15740009 428.58915861 92.07646179 428.58309937 C82.71735246 428.57705059 73.35839311 428.58939902 63.99930936 428.61066943 C55.94979834 428.62828886 47.90033506 428.63428655 39.85080546 428.63103169 C35.04906323 428.62922044 30.24742821 428.63183999 25.44570351 428.64574623 C20.93366514 428.65832676 16.42186107 428.65637838 11.90982628 428.64333534 C10.25666092 428.64097112 8.60347905 428.64369872 6.95033264 428.65195847 C4.68907054 428.66244026 2.42859276 428.65431475 0.1673584 428.64164734 C-1.0963367 428.64181508 -2.3600318 428.64198282 -3.66202068 428.64215565 C-10.79391053 427.88950394 -16.40628246 424.52111001 -21.21284485 419.26742554 C-24.69160096 413.54431065 -25.1530397 407.79506411 -24.21284485 401.26742554 C-22.30743187 395.29713152 -19.54451773 390.76418882 -14.3495636 387.20492554 C-5.86516132 383.48233587 2.94882181 384.00001854 12.01860046 384.04379272 C13.66531369 384.04431755 15.31202746 384.04387987 16.95874023 384.04255676 C20.49396132 384.04122716 24.02911267 384.04561033 27.56432343 384.05416107 C33.16352624 384.06658926 38.76260104 384.05956911 44.36180115 384.04873657 C60.28015081 384.0203323 76.19838978 384.00780685 92.116745 384.03744507 C100.91689538 384.053667 109.71676518 384.04843127 118.51688647 384.01964879 C123.16639617 384.00540172 127.81532166 384.00223354 132.4648056 384.02587128 C136.84163812 384.04812124 141.21756555 384.04235691 145.59436607 384.01588631 C147.19221762 384.01114602 148.79013897 384.01647115 150.38791084 384.03311729 C161.44542387 384.14063667 170.71578799 382.7360752 179.27812576 375.02373886 C188.59677594 365.43615425 188.93955564 354.66380395 188.92086792 341.9389801 C188.92426625 340.23775079 188.92426625 340.23775079 188.92773324 338.50215322 C188.93405856 334.70539442 188.93324482 330.90867144 188.93241882 327.11190796 C188.93486825 324.38821783 188.9387857 321.6645302 188.94259644 318.94084167 C188.95089082 312.3123008 188.95365073 305.68376882 188.95420881 299.05522319 C188.95468454 293.6655049 188.95674209 288.27578953 188.95990944 282.88607216 C188.96871259 267.59425145 188.97332933 252.30243774 188.97257897 237.01061448 C188.97253901 236.18681476 188.97249905 235.36301505 188.97245789 234.51425171 C188.97239656 233.27703777 188.97239656 233.27703777 188.972334 232.01482961 C188.9719276 218.64924147 188.98149667 205.28368151 188.99559625 191.91810151 C189.00997027 178.18365889 189.01686588 164.44923001 189.01600248 150.71477968 C189.01567087 143.00825295 189.01840211 135.30175576 189.02918053 127.59523582 C189.038299 121.03369243 189.04044971 114.47219197 189.0336711 107.91064497 C189.03041272 104.56559355 189.03141772 101.22069147 189.03902435 97.87563705 C189.0467498 94.24262543 189.04209557 90.60982895 189.03439331 86.9768219 C189.04210866 85.40515134 189.04210866 85.40515134 189.04997987 83.80172986 C188.99709456 72.48616838 187.48650301 62.04622472 179.53715515 53.51742554 C173.33804004 47.66567463 166.52380575 45.14693914 158.07778931 45.12939453 C157.04934736 45.12516261 157.04934736 45.12516261 156.00012881 45.1208452 C153.69727399 45.11249679 151.39446723 45.11116072 149.09159851 45.10971069 C147.44237635 45.10504247 145.79315547 45.0998989 144.14393616 45.09431458 C140.58846088 45.08302952 137.032994 45.07459713 133.47750664 45.06819534 C127.84986121 45.05751332 122.22227588 45.03726623 116.59466553 45.01507568 C100.59025334 44.95316369 84.58584413 44.89919377 68.5813446 44.86605835 C59.74503796 44.84768346 50.90883149 44.81870885 42.07259852 44.77805364 C37.39866389 44.75702651 32.7248553 44.74153252 28.0508709 44.73924637 C23.64886518 44.73709084 19.24712155 44.72112955 14.84519577 44.69485664 C13.2352385 44.68769575 11.62524935 44.685547 10.01527977 44.68895912 C0.39604286 44.70607946 -8.4396682 44.4747459 -17.02534485 39.70492554 C-22.50748828 33.59625143 -25.06747878 27.09302971 -24.62690735 18.87289429 C-23.55274665 12.11378878 -20.32346522 7.84942102 -15.18940735 3.49398804 C-10.34156002 0.48564009 -5.6070659 0.01496835 0 0 Z " fill="#000000" transform="translate(237.2128448486328,41.732574462890625)"/>
<path d="M0 0 C5.86228605 3.54205494 9.1671392 8.4638148 11.05078125 14.953125 C12.22787863 21.29921521 11.37908466 26.5273162 7.9375 32 C5.12603105 35.82709529 1.92726294 39.12971009 -1.49609375 42.41015625 C-3.44523843 44.32130591 -5.22578191 46.30171097 -7 48.375 C-10.01762353 51.88641648 -13.23359081 55.12807402 -16.53125 58.375 C-18.43986455 60.31391002 -20.22710552 62.31199551 -22 64.375 C-25.01762353 67.88641648 -28.23359081 71.12807402 -31.53125 74.375 C-33.43986455 76.31391002 -35.22710552 78.31199551 -37 80.375 C-40.01039766 83.87800819 -43.21775133 87.11270851 -46.5078125 90.3515625 C-49.14865452 93.0338295 -51.60671667 95.85307388 -54.0546875 98.7109375 C-55.15402798 99.97666464 -56.3145434 101.1895434 -57.5 102.375 C-55.91082764 102.37858253 -55.91082764 102.37858253 -54.28955078 102.38223743 C-28.50835232 102.44103744 -2.72724728 102.51692344 23.05384827 102.61071491 C35.52140457 102.65567643 47.98893228 102.69509035 60.45654297 102.72143555 C71.32357281 102.74441266 82.19051221 102.77780762 93.05747032 102.82370156 C98.81119503 102.84763749 104.56483015 102.86636391 110.31860352 102.87261391 C115.73585364 102.87866299 121.1528745 102.89865683 126.57003975 102.92927551 C128.55655894 102.9380585 130.5431081 102.94177778 132.52964592 102.94000816 C135.24650906 102.93835233 137.96267589 102.95508114 140.67944336 102.97627258 C141.85262871 102.96900122 141.85262871 102.96900122 143.04951477 102.96158296 C149.80418879 103.04825407 155.03121615 104.76079518 160.75 108.5 C165.49697084 113.46274225 167.69652393 118.6164663 167.9375 125.5 C167.63896941 131.92835878 165.3752992 137.20047106 161.06194633 142.0338614 C155.41752437 146.88034813 148.66651032 147.96236552 141.48326111 147.85601807 C140.62210884 147.85943577 139.76095657 147.86285347 138.87370878 147.86637473 C136.01303266 147.87291803 133.15331302 147.85103686 130.29272461 147.82910156 C128.2323102 147.82797232 126.17189419 147.82860845 124.11148071 147.83087158 C118.53560315 147.83201663 112.96007158 147.8085409 107.38427424 147.78057575 C101.55068016 147.7555274 95.71707767 147.75321738 89.88343811 147.74847412 C78.84450455 147.73605446 67.80572992 147.7032464 56.76686627 147.66307616 C44.19618156 147.61832711 31.62548916 147.59636351 19.0547446 147.57629442 C-6.79692496 147.53451298 -32.64845356 147.46418046 -58.5 147.375 C-57.37968195 148.66213391 -56.25840393 149.94843231 -55.13671875 151.234375 C-54.51240967 151.95077148 -53.88810059 152.66716797 -53.24487305 153.40527344 C-51.40534816 155.48184917 -49.49556669 157.44824595 -47.5 159.375 C-44.24970017 162.57529522 -41.25275755 165.91724576 -38.28125 169.375 C-35.79742572 172.16385533 -33.13288563 174.75186983 -30.47265625 177.37109375 C-27.92662171 179.95746151 -25.57978443 182.6903528 -23.21484375 185.44140625 C-21.53995701 187.32994597 -19.80052413 189.10655648 -18 190.875 C-15.56610268 193.26553167 -13.28644441 195.72546262 -11.0625 198.3125 C-8.69034069 201.07033332 -6.23546158 203.65457688 -3.625 206.1875 C11.25010813 220.94639635 11.25010813 220.94639635 11.5859375 230.9296875 C11.36976373 238.02411775 9.53191268 243.281847 4.5 248.375 C-1.70058693 252.93205787 -7.90163057 254.51925529 -15.5 253.375 C-25.61400168 250.41055123 -32.25111332 241.62541016 -39.10546875 234.08984375 C-42.79473911 230.03676581 -46.55078766 226.04826417 -50.3125 222.0625 C-51.68106317 220.61074645 -53.04955244 219.15892323 -54.41796875 217.70703125 C-55.09649902 216.98725098 -55.7750293 216.2674707 -56.47412109 215.52587891 C-65.08724518 206.38131115 -73.66471455 197.20326561 -82.2331543 188.0168457 C-86.46165049 183.48449126 -90.69752316 178.95911515 -94.9375 174.4375 C-95.5572168 173.7765332 -96.17693359 173.11556641 -96.81542969 172.43457031 C-100.00669917 169.03154215 -103.19963603 165.63009318 -106.39453125 162.23046875 C-108.92366089 159.53922767 -111.44800821 156.84362899 -113.96875 154.14453125 C-116.22377746 151.7304482 -118.49419616 149.33295765 -120.78125 146.94921875 C-121.77100573 145.90380902 -122.76059955 144.85824597 -123.75 143.8125 C-124.60078125 142.92433594 -125.4515625 142.03617188 -126.328125 141.12109375 C-131.25373596 134.89320795 -132.33628087 129.04696799 -131.5 121.375 C-130.26427729 114.34599662 -125.79854206 109.90756085 -120.97949219 104.91503906 C-119.33722439 103.20556294 -117.71827035 101.47585251 -116.1015625 99.7421875 C-112.9003079 96.31044257 -109.6875993 92.88967967 -106.47167969 89.47167969 C-103.31036827 86.10994833 -100.15541461 82.74226515 -97 79.375 C-95.75003251 78.04163619 -94.50003246 76.7083029 -93.25 75.375 C-92.321875 74.385 -92.321875 74.385 -91.375 73.375 C-85.75 67.375 -85.75 67.375 -83.87475586 65.37475586 C-82.625548 64.04225663 -81.37636178 62.70973712 -80.12719727 61.37719727 C-76.99025515 58.03093489 -73.85293042 54.68503281 -70.71484375 51.33984375 C-64.63559343 44.85865952 -58.56121017 38.37306185 -52.5 31.875 C-50.77080504 30.02200985 -49.04146756 28.16915291 -47.31201172 26.31640625 C-46.05559438 24.970269 -44.7994267 23.6238987 -43.54345703 22.27734375 C-41.55106419 20.14204892 -39.55695318 18.00837032 -37.5625 15.875 C-36.95986328 15.22853516 -36.35722656 14.58207031 -35.73632812 13.91601562 C-25.74097002 3.23437601 -15.93175046 -7.23895125 0 0 Z " fill="#000000" transform="translate(173.5,130.625)"/>
</svg>
