<?xml version="1.0" encoding="UTF-8"?>
<svg version="1.1" xmlns="http://www.w3.org/2000/svg" width="512" height="512">
<path d="M0 0 C1.04782654 -0.0099852 2.09565308 -0.0199704 3.17523193 -0.03025818 C5.38387123 -0.04538458 7.59257849 -0.05248568 9.80126953 -0.05200195 C13.14863372 -0.0585483 16.49300517 -0.11304975 19.83984375 -0.16992188 C32.21397769 -0.26757713 41.95253168 -0.20978056 51.80761719 8.0925293 C59.21283777 15.71390348 60.51345446 25.4050931 60.42980957 35.57275391 C60.43604953 36.75030558 60.4422895 37.92785725 60.44871855 39.1410923 C60.46184069 42.38305355 60.45721656 45.62440771 60.44477367 48.86635303 C60.43567996 52.37290866 60.4497142 55.87938558 60.46069336 59.38592529 C60.47843734 66.24471807 60.47465708 73.10333531 60.4630428 79.96213484 C60.45399246 85.53867496 60.45279138 91.11516605 60.45713806 96.69171143 C60.45775099 97.48677333 60.45836393 98.28183524 60.45899543 99.10098994 C60.46027439 100.7163733 60.46157125 102.33175665 60.4628858 103.94713998 C60.47427952 119.07838607 60.46119689 134.20953507 60.43968433 149.34076524 C60.42181443 162.3112098 60.42491888 175.28151114 60.44335938 188.25195312 C60.46478747 203.33073724 60.473181 218.40943635 60.46091032 233.48823357 C60.45963619 235.09752272 60.4583787 236.70681189 60.45713806 238.31610107 C60.45652096 239.10780783 60.45590386 239.89951459 60.45526806 240.71521246 C60.45182097 246.28210665 60.45762964 251.84894672 60.46705627 257.41583252 C60.47829922 264.20426511 60.47518818 270.99251279 60.4539333 277.78092432 C60.44345355 281.24149146 60.43924794 284.70175082 60.45252991 288.16231537 C60.46348289 291.92020206 60.44972269 295.67722661 60.42980957 299.43505859 C60.43873246 300.51970209 60.44765534 301.60434559 60.45684862 302.72185707 C60.37310098 310.88676989 58.66490202 318.19119395 53.671875 324.81640625 C45.40583266 332.89458399 36.95421663 334.81582628 25.7109375 334.8046875 C24.74336517 334.80897263 23.77579285 334.81325775 22.77890015 334.81767273 C20.73997782 334.82339398 18.70103509 334.82393262 16.66210938 334.81958008 C13.56344324 334.81642313 10.46573566 334.83989693 7.3671875 334.86523438 C5.37760536 334.86750808 3.38802068 334.86821053 1.3984375 334.8671875 C0.02457382 334.88100212 0.02457382 334.88100212 -1.37704468 334.89509583 C-11.10685217 334.82604299 -18.92030059 332.19287753 -26.078125 325.50390625 C-32.75738761 317.97702149 -33.37355316 310.56182413 -33.35227966 300.80218506 C-33.35751634 299.61580043 -33.36275302 298.4294158 -33.36814839 297.20708013 C-33.38054236 293.92204645 -33.38399227 290.63714555 -33.38355148 287.35209298 C-33.38520241 283.80594196 -33.39827406 280.25982967 -33.40974426 276.71369934 C-33.43257159 268.9636309 -33.44051235 261.21358989 -33.44557071 253.46349239 C-33.44883021 248.62201213 -33.45535421 243.7805398 -33.4625721 238.93906403 C-33.48213467 225.52743664 -33.49854102 212.11581661 -33.50144863 198.70417404 C-33.5016362 197.84632551 -33.50182377 196.98847699 -33.50201702 196.10463305 C-33.50238327 194.36566146 -33.50274697 192.62668988 -33.50310814 190.88771829 C-33.50329095 190.02452223 -33.50347376 189.16132617 -33.50366211 188.27197266 C-33.50384266 187.40771987 -33.50402321 186.54346709 -33.50420923 185.65302482 C-33.50775057 171.65036331 -33.53477193 157.64785561 -33.57216 143.64524743 C-33.61026174 129.25994309 -33.62960624 114.87471505 -33.62990814 100.48935914 C-33.63049227 92.41610541 -33.63895575 84.34303521 -33.66790581 76.2698288 C-33.69244466 69.39529023 -33.69968577 62.52100214 -33.68465828 55.6464316 C-33.6774996 52.14125649 -33.6783008 48.63657574 -33.70106888 45.13145638 C-33.72149616 41.32506101 -33.71099451 37.51994124 -33.69285583 33.71356201 C-33.7060558 32.61451719 -33.71925577 31.51547237 -33.73285574 30.38312316 C-33.64051457 21.8834148 -31.35632456 15.45304791 -25.90234375 8.8828125 C-25.19722656 8.28339844 -24.49210937 7.68398437 -23.765625 7.06640625 C-23.06824219 6.44894531 -22.37085938 5.83148438 -21.65234375 5.1953125 C-14.6610569 0.60164451 -8.14877169 0.02739951 0 0 Z M-4.078125 29.50390625 C-4.078125 120.25390625 -4.078125 211.00390625 -4.078125 304.50390625 C7.471875 304.50390625 19.021875 304.50390625 30.921875 304.50390625 C30.921875 213.75390625 30.921875 123.00390625 30.921875 29.50390625 C19.371875 29.50390625 7.821875 29.50390625 -4.078125 29.50390625 Z " fill="#000000" transform="translate(424.078125,149.49609375)"/>
<path d="M0 0 C0.94843781 -0.01283524 1.89687561 -0.02567047 2.87405396 -0.03889465 C3.89385345 -0.04628159 4.91365295 -0.05366852 5.96435547 -0.0612793 C7.02258514 -0.06935104 8.08081482 -0.07742279 9.17111206 -0.08573914 C11.41207245 -0.09956459 13.65305376 -0.11029362 15.89404297 -0.11816406 C18.17503064 -0.1296662 20.45599177 -0.15008976 22.73681641 -0.1796875 C26.04201453 -0.2225717 29.34641288 -0.23856408 32.65185547 -0.2487793 C33.65950958 -0.26628738 34.6671637 -0.28379547 35.70535278 -0.30183411 C43.60583918 -0.27794059 50.24181381 1.43403224 56.79248047 5.96606445 C57.67806641 6.87485352 57.67806641 6.87485352 58.58154297 7.80200195 C59.18740234 8.39239258 59.79326172 8.9827832 60.41748047 9.59106445 C67.09515053 19.24306791 66.77951193 29.33688179 66.72412109 40.61083984 C66.72954832 42.46961514 66.73667434 44.32838613 66.74536133 46.18714905 C66.76352486 51.21190256 66.75655635 56.23632585 66.74384499 61.26108479 C66.73368263 66.53127859 66.74311949 71.80144505 66.74938965 77.07164001 C66.756656 85.9190679 66.74710425 94.76636198 66.72802734 103.61376953 C66.70625387 113.8294897 66.71331757 124.04489056 66.73533297 134.26060301 C66.75350777 143.04731219 66.75603531 151.83392547 66.74557829 160.62064737 C66.73935568 165.86177104 66.73847394 171.1027448 66.75172424 176.34385872 C66.76331263 181.27128805 66.75520244 186.19830716 66.73214722 191.12569237 C66.72687637 192.9295903 66.72834597 194.733523 66.73719788 196.53740692 C66.78890889 208.1493536 66.2192212 217.64587532 58.05029297 226.60668945 C52.35434913 231.45789585 45.24438305 234.25719119 37.79614258 234.35400391 C36.93101547 234.36683914 36.06588837 234.37967438 35.17454529 234.39289856 C34.24537796 234.40028549 33.31621063 234.40767242 32.35888672 234.4152832 C31.3918129 234.42335495 30.42473907 234.4314267 29.42835999 234.43974304 C27.37991111 234.45356573 25.33143937 234.46429599 23.28295898 234.47216797 C21.20281148 234.48365513 19.1226927 234.50405477 17.04272461 234.53369141 C-9.80725275 234.91607234 -9.80725275 234.91607234 -19.29345703 225.9543457 C-25.13819997 219.02893415 -26.94290932 212.46081853 -26.94062805 203.58137512 C-26.94430474 202.81251612 -26.94798143 202.04365712 -26.95176953 201.25149935 C-26.96278982 198.67303056 -26.9666474 196.09460209 -26.97045898 193.51611328 C-26.97672489 191.66807935 -26.9833718 189.82004668 -26.9903717 187.97201538 C-27.01139952 181.90103022 -27.02177295 175.83004485 -27.03173828 169.7590332 C-27.03578632 167.6678688 -27.03990326 165.57670453 -27.04408836 163.48554039 C-27.06313728 153.66058209 -27.0773689 143.8356313 -27.08570033 134.01065809 C-27.09547179 122.67512845 -27.12179025 111.33979413 -27.16220123 100.00433332 C-27.19237574 91.2390024 -27.20717049 82.47372743 -27.21048135 73.70834559 C-27.21283031 68.4749225 -27.22177095 63.24170814 -27.24694252 58.00834084 C-27.2702515 53.08268239 -27.27444505 48.15736972 -27.26418114 43.23167038 C-27.26368635 41.4277589 -27.26998977 39.62383024 -27.28373718 37.81997108 C-27.37329166 25.36852975 -26.42013878 16.33975783 -17.66064453 6.90356445 C-12.47494993 2.10842425 -6.99086191 0.08277193 0 0 Z M2.20654297 29.17700195 C2.20654297 86.92700195 2.20654297 144.67700195 2.20654297 204.17700195 C13.75654297 204.17700195 25.30654297 204.17700195 37.20654297 204.17700195 C37.20654297 146.42700195 37.20654297 88.67700195 37.20654297 29.17700195 C25.65654297 29.17700195 14.10654297 29.17700195 2.20654297 29.17700195 Z " fill="#000000" transform="translate(175.79345703125,249.822998046875)"/>
<path d="M0 0 C3.62011046 2.33296007 5.89022378 4.96794755 7.8125 8.8125 C8.015625 10.765625 8.015625 10.765625 8.0625 13.0625 C8.08828125 13.81015625 8.1140625 14.5578125 8.140625 15.328125 C7.40376091 20.90723886 4.20677529 24.79410155 0.34300232 28.66967773 C-0.57222702 29.59481171 -1.48745636 30.51994568 -2.43041992 31.47311401 C-3.44247251 32.48092905 -4.45468489 33.48858362 -5.46704102 34.49609375 C-6.53560301 35.57036272 -7.60353422 36.64525944 -8.67088318 37.72073364 C-11.56501768 40.63278443 -14.46861026 43.53522584 -17.37456632 46.4354744 C-19.80499987 48.86281201 -22.23082027 51.2947339 -24.6566872 53.72663403 C-30.38482397 59.4688112 -36.12071907 65.20315557 -41.86157227 70.93261719 C-47.76890463 76.8284858 -53.66337622 82.73698749 -59.55154663 88.65198803 C-64.61875187 93.74140976 -69.69374778 98.82296967 -74.77500099 103.89836597 C-77.80453075 106.92453713 -80.83114325 109.95347985 -83.8503437 112.98995972 C-86.69367074 115.84884728 -89.54668452 118.69771361 -92.40714455 121.53945541 C-93.44974942 122.57839862 -94.48902977 123.62069163 -95.52452469 124.66672134 C-106.77780527 136.02561804 -117.44163844 142.92508309 -133.625 143.25 C-134.64412476 143.28359619 -134.64412476 143.28359619 -135.68383789 143.31787109 C-147.44096591 143.26498002 -158.3769089 136.51697082 -168.75 131.5625 C-170.23737387 130.85688129 -171.72500946 130.15181401 -173.21289062 129.44726562 C-176.30852655 127.98076183 -179.40302638 126.51190254 -182.49658203 125.04101562 C-193.53193141 119.795778 -204.5839253 114.58586902 -215.65316772 109.41255188 C-219.45089415 107.63532723 -223.23217148 105.82773277 -227.00390625 103.99609375 C-228.58559692 103.24667659 -230.1675905 102.49789815 -231.75 101.75 C-232.40291016 101.42128906 -233.05582031 101.09257812 -233.72851562 100.75390625 C-238.76621954 98.41975226 -242.96346313 98.17245808 -248.1875 99.8125 C-255.03819042 104.59761985 -260.78134521 111.2945759 -266.63916016 117.21411133 C-267.66482264 118.24661882 -268.69074461 119.27886861 -269.71690369 120.31088257 C-271.91108815 122.51830729 -274.10382319 124.72715794 -276.29552078 126.93705177 C-279.76341501 130.43296643 -283.23688034 133.92330992 -286.71151733 137.41252136 C-287.90459578 138.61074219 -289.09766709 139.80897013 -290.29073143 141.00720501 C-291.18623778 141.90658969 -291.18623778 141.90658969 -292.09983516 142.82414377 C-300.1776776 150.93795561 -308.2506465 159.05657184 -316.31347656 167.18530273 C-321.76816725 172.68448682 -327.22994751 178.17652169 -332.69987142 183.66055506 C-335.58940245 186.55815148 -338.47510982 189.45934216 -341.35206985 192.36942482 C-344.05386198 195.1022766 -346.76481314 197.82569364 -349.48304939 200.54218674 C-350.47740636 201.53923755 -351.46833738 202.53971888 -352.45551491 203.54387856 C-353.80554962 204.91612077 -355.16927815 206.27485025 -356.53359985 207.63288879 C-357.29198465 208.39625958 -358.05036945 209.15963037 -358.83173561 209.94613361 C-362.69924176 213.01018514 -366.78845576 214.23812941 -371.6875 213.75 C-376.54146058 213.0624238 -378.82771305 211.336179 -382.1875 207.8125 C-384.0221811 204.80513613 -384.50783661 202.44688967 -384.5625 198.9375 C-384.59085937 198.11507812 -384.61921875 197.29265625 -384.6484375 196.4453125 C-383.67767548 190.90045146 -379.45404241 186.82788504 -375.5977478 182.95532227 C-374.2228418 181.56762131 -374.2228418 181.56762131 -372.82015991 180.15188599 C-371.81169275 179.14411771 -370.80311357 178.13646152 -369.79443359 177.12890625 C-368.72594023 176.0544224 -367.65785606 174.97953149 -366.59014893 173.90426636 C-363.69797616 170.99447751 -360.79939364 168.09115748 -357.89903975 165.1895256 C-356.08402193 163.37308293 -354.27043711 161.55522211 -352.4573555 159.73684692 C-346.12262234 153.38362667 -339.78275927 147.03557826 -333.43798828 140.69238281 C-327.53947408 134.79506903 -321.65219485 128.88670353 -315.77010477 122.97301197 C-310.70701905 117.88370432 -305.63617995 112.80220969 -300.55932868 107.72663403 C-297.53290331 104.70071664 -294.50960922 101.67183089 -291.49409103 98.63504028 C-288.65477697 95.77624449 -285.8058591 92.92736913 -282.94956207 90.08554459 C-281.90855269 89.04661224 -280.87088322 88.00431964 -279.83701706 86.95827866 C-268.73595047 75.73510036 -258.26704035 68.67497173 -242.3125 68.375 C-241.58160156 68.35260254 -240.85070312 68.33020508 -240.09765625 68.30712891 C-228.12298718 68.35728735 -217.19029344 75.01622812 -206.625 80.0625 C-205.13762613 80.76811871 -203.64999054 81.47318599 -202.16210938 82.17773438 C-199.06647345 83.64423817 -195.97197362 85.11309746 -192.87841797 86.58398438 C-181.84306859 91.829222 -170.7910747 97.03913098 -159.72183228 102.21244812 C-155.92410585 103.98967277 -152.14282852 105.79726723 -148.37109375 107.62890625 C-146.78940308 108.37832341 -145.2074095 109.12710185 -143.625 109.875 C-142.97208984 110.20371094 -142.31917969 110.53242188 -141.64648438 110.87109375 C-136.59546637 113.21141665 -132.39629798 113.63378718 -127.1875 111.8125 C-124.83023873 110.0852627 -124.83023873 110.0852627 -122.54743958 107.88169861 C-121.67132334 107.06611921 -120.7952071 106.25053982 -119.89254189 105.4102459 C-115.45775017 101.15136102 -111.09616851 96.82660176 -106.76831055 92.45922852 C-105.77028004 91.45598867 -104.77199659 90.4530004 -103.77348328 89.45024109 C-101.64529722 87.31221192 -99.5186061 85.17271129 -97.39304161 83.03207588 C-94.02987059 79.64561945 -90.66163032 76.26423504 -87.29243469 72.8837738 C-77.72010685 63.27818589 -68.15217693 53.66824553 -58.59448242 44.0480957 C-53.29941459 38.71851215 -47.99900942 33.39429798 -42.69260055 28.0760054 C-39.34279187 24.71810987 -35.99965192 21.35375735 -32.66128671 17.9844867 C-30.58666793 15.89386137 -28.50578282 13.80956311 -26.42305183 11.72702217 C-25.0008091 10.30120534 -23.58607061 8.86791539 -22.17156982 7.43441772 C-20.89557167 6.16243782 -20.89557167 6.16243782 -19.59379578 4.86476135 C-18.85920985 4.12611123 -18.12462393 3.38746111 -17.36777782 2.62642765 C-12.10940574 -1.74838477 -6.37843175 -2.37627849 0 0 Z " fill="#000000" transform="translate(444.1875,29.1875)"/>
<path d="M0 0 C3.04166401 0.02143732 6.08096655 0.00013185 9.12255859 -0.02539062 C21.15560153 -0.04284448 32.76815056 -0.02296127 42.04833984 8.74414062 C47.27909626 14.9420421 49.66147003 21.18001115 49.69551086 29.21218872 C49.70266617 30.37280319 49.70982147 31.53341766 49.7171936 32.72920227 C49.71988251 33.99886337 49.72257141 35.26852448 49.7253418 36.57666016 C49.73161004 37.93046746 49.73825716 39.28427305 49.74525452 40.63807678 C49.76625918 45.08097138 49.77665539 49.52386617 49.78662109 53.96679688 C49.79067037 55.49950045 49.79478734 57.03220386 49.79897118 58.56490707 C49.81801709 65.76877483 49.83224785 72.97263239 49.84058315 80.17652047 C49.85034551 88.47555527 49.8766412 96.77432265 49.91708404 105.07326329 C49.94731252 111.49807774 49.96205849 117.92281585 49.96536416 124.3477 C49.9677075 128.17999138 49.97657349 132.01199688 50.00182533 135.84421158 C50.02522869 139.45420626 50.0292907 143.06372935 50.01906395 146.67378044 C50.01833814 148.6160933 50.03734398 150.55838287 50.05712891 152.50059509 C49.99989109 162.20699122 48.15561006 170.68793769 41.39208984 177.98632812 C35.62587788 182.78743258 28.5868793 185.61570779 21.10620117 185.68261719 C20.23461868 185.69222473 19.36303619 185.70183228 18.46504211 185.71173096 C17.52960068 185.71598083 16.59415924 185.72023071 15.63037109 185.72460938 C14.65855392 185.73030945 13.68673676 185.73600952 12.68547058 185.74188232 C10.62862228 185.75132256 8.57175893 185.75786243 6.51489258 185.76171875 C3.38970023 185.77139502 0.26517399 185.80241585 -2.85986328 185.83398438 C-4.86311461 185.84051795 -6.86637061 185.84576703 -8.86962891 185.84960938 C-9.79494919 185.86195618 -10.72026947 185.87430298 -11.67362976 185.88702393 C-21.44437585 185.85397812 -29.2627295 183.23952438 -36.45166016 176.52148438 C-41.45466646 170.88357879 -43.68814677 165.12965266 -43.73254395 157.52780151 C-43.74396423 156.35049973 -43.75538452 155.17319794 -43.76715088 153.96022034 C-43.7693866 152.6821904 -43.77162231 151.40416046 -43.77392578 150.08740234 C-43.78319292 148.71683728 -43.79324368 147.34627733 -43.80401611 145.97572327 C-43.83016918 142.26258317 -43.8431359 138.54951525 -43.85203743 134.83629751 C-43.85791574 132.51146203 -43.86612858 130.1866459 -43.87504578 127.86182022 C-43.90237391 120.57359092 -43.92171647 113.28540629 -43.92944956 105.99712932 C-43.93839884 97.61081014 -43.9734467 89.22514489 -44.03145075 80.83902442 C-44.07483077 74.33939331 -44.09486593 67.83994517 -44.0975318 61.34017098 C-44.09961799 57.46635045 -44.11121712 53.59314548 -44.14717102 49.71947861 C-44.18038775 46.06986853 -44.18432386 42.42132816 -44.16689301 38.7716198 C-44.16464384 36.81297322 -44.19188571 34.85436013 -44.22039795 32.8959198 C-44.12768975 22.95598295 -41.47955978 14.18474908 -34.26416016 7.02148438 C-23.8967539 -0.52747731 -12.27165102 -0.10297335 0 0 Z M-14.45166016 30.52148438 C-14.45166016 71.77148438 -14.45166016 113.02148438 -14.45166016 155.52148438 C-2.90166016 155.52148438 8.64833984 155.52148438 20.54833984 155.52148438 C20.54833984 114.27148438 20.54833984 73.02148438 20.54833984 30.52148438 C8.99833984 30.52148438 -2.55166016 30.52148438 -14.45166016 30.52148438 Z " fill="#000000" transform="translate(313.45166015625,298.478515625)"/>
<path d="M0 0 C0.95174103 -0.01283524 1.90348206 -0.02567047 2.88406372 -0.03889465 C3.91216156 -0.04628159 4.9402594 -0.05366852 5.99951172 -0.0612793 C7.06152802 -0.06935104 8.12354431 -0.07742279 9.21774292 -0.08573914 C11.46887583 -0.09957743 13.7200297 -0.11030072 15.97119141 -0.11816406 C19.39510582 -0.13532715 22.8180421 -0.17921086 26.24169922 -0.22338867 C28.4317963 -0.23352031 30.62190158 -0.24203494 32.81201172 -0.2487793 C33.82796417 -0.26628738 34.84391663 -0.28379547 35.89065552 -0.30183411 C45.2205869 -0.27371353 52.62764527 2.52324338 59.37306213 9.06629944 C66.59493943 16.95969794 67.04458842 25.57598247 66.93310547 35.8371582 C66.93393639 37.23620284 66.93640415 38.63524736 66.94041443 40.0342865 C66.9432552 42.95008124 66.92874111 45.8651005 66.90112305 48.78076172 C66.86700983 52.49502939 66.8730847 56.20791553 66.89178562 59.92224979 C66.90241485 62.80589571 66.89336521 65.68922682 66.8784008 68.57284355 C66.87326392 69.94140116 66.87364542 71.30999225 66.87994576 72.678545 C66.91067192 83.35768522 65.43977723 91.57186605 58.07763672 99.60668945 C50.28591491 106.50596736 42.33867708 107.33550014 32.35888672 107.4152832 C30.91039841 107.42739082 30.91039841 107.42739082 29.43264771 107.43974304 C27.39017514 107.45355035 25.34767982 107.46428744 23.30517578 107.47216797 C21.23186404 107.48366478 19.15858137 107.50407991 17.08544922 107.53369141 C-9.70961922 107.91605088 -9.70961922 107.91605088 -19.19580078 98.9543457 C-24.49708372 92.67287763 -26.79622018 86.4085076 -26.87280273 78.28198242 C-26.88563797 77.09329559 -26.89847321 75.90460876 -26.91169739 74.67990112 C-26.91908432 73.39761627 -26.92647125 72.11533142 -26.93408203 70.79418945 C-26.93815756 70.13735294 -26.94223309 69.48051643 -26.94643211 68.80377579 C-26.9672611 65.32337005 -26.98157339 61.84300331 -26.9909668 58.36254883 C-27.00199215 54.79185017 -27.03635501 51.2217814 -27.0761385 47.65130424 C-27.10246254 44.88523309 -27.11067272 42.11930806 -27.11424828 39.35312271 C-27.12140609 37.40458497 -27.14777982 35.45614777 -27.17463684 33.50778198 C-27.14895275 22.90604384 -24.97318097 14.69866832 -17.63330078 6.8684082 C-12.64076484 2.51000485 -6.60594315 0.07772493 0 0 Z M2.30419922 29.17700195 C2.30419922 45.01700195 2.30419922 60.85700195 2.30419922 77.17700195 C13.85419922 77.17700195 25.40419922 77.17700195 37.30419922 77.17700195 C37.30419922 61.33700195 37.30419922 45.49700195 37.30419922 29.17700195 C25.75419922 29.17700195 14.20419922 29.17700195 2.30419922 29.17700195 Z " fill="#000000" transform="translate(54.69580078125,376.822998046875)"/>
</svg>
