<?xml version="1.0" encoding="UTF-8"?>
<svg version="1.1" xmlns="http://www.w3.org/2000/svg" width="512" height="512">
<path d="M0 0 C0.81854507 -0.00445784 1.63709014 -0.00891569 2.4804396 -0.01350862 C3.37429353 -0.01332426 4.26814746 -0.01313989 5.18908787 -0.01294994 C6.61990809 -0.01846498 6.61990809 -0.01846498 8.07963377 -0.02409142 C11.28446394 -0.03512769 14.48926168 -0.03897207 17.69410801 -0.04278088 C19.98884783 -0.04904571 22.28358663 -0.05569253 24.57832432 -0.0626936 C32.12350349 -0.08373897 39.66868287 -0.09409836 47.2138834 -0.10406017 C49.81262885 -0.10810794 52.4113742 -0.11222487 55.01011944 -0.11641026 C65.82327446 -0.1332815 76.63642655 -0.14791465 87.44959259 -0.155159 C90.2545678 -0.15706874 93.05954299 -0.15898909 95.86451817 -0.16094494 C96.5616406 -0.16142868 97.25876302 -0.16191242 97.97701038 -0.16241082 C109.2553466 -0.17070083 120.5335764 -0.19601998 131.81186622 -0.22852562 C143.40485688 -0.26166426 154.99778812 -0.27928175 166.59082609 -0.28280324 C173.09421112 -0.28515068 179.59742803 -0.29407131 186.10076809 -0.31926441 C192.22475179 -0.34260387 198.34845739 -0.34675456 204.4724741 -0.33650303 C206.71331872 -0.33600894 208.95417729 -0.34229152 211.19497967 -0.35605907 C231.27936616 -0.47249621 247.44869433 2.39310947 262.59278965 16.79437733 C274.90260134 29.42036569 280.15876406 43.73147768 280.19288731 61.14984608 C280.20293293 62.33119633 280.21297855 63.51254658 280.22332859 64.72969532 C280.25409293 68.61453253 280.27117723 72.49930101 280.28810215 76.38422108 C280.3057411 79.08565196 280.3262978 81.78705855 280.34678745 84.48846912 C280.39344667 90.85950205 280.43025268 97.23055171 280.46346033 103.6016674 C280.50177297 110.85932663 280.55115896 118.11689755 280.60144448 125.37448215 C280.70457292 140.29432974 280.79389495 155.21423099 280.87403965 170.13422108 C281.74649326 170.39179188 282.61894688 170.64936268 283.51783848 170.91473866 C284.67308018 171.26173817 285.82832188 171.60873768 287.0185709 171.96625233 C288.15914951 172.30632313 289.29972813 172.64639393 290.47486973 172.99676991 C305.44066559 178.00471668 317.26717495 189.1905405 324.62403965 203.00922108 C329.53492102 213.74418217 330.27488994 223.70821935 330.06153965 235.32172108 C330.04645242 236.76506635 330.03277121 238.20842704 330.02052402 239.6517992 C329.98786832 243.14626645 329.93631417 246.6401412 329.87403965 250.13422108 C330.89884434 250.07621326 331.92364902 250.01820545 332.9795084 249.95843983 C334.34013976 249.9115215 335.70082061 249.86602356 337.06153965 249.82172108 C338.07184238 249.75887928 338.07184238 249.75887928 339.10255527 249.69476795 C342.74480665 249.60593255 344.6160183 249.94431689 347.56919956 252.11786366 C350.65574631 256.15724506 350.58242677 258.93439858 350.52101231 263.88422108 C350.5341547 265.19000111 350.5341547 265.19000111 350.5475626 266.52216053 C350.5695296 269.39335772 350.55501364 272.26300884 350.53810215 275.13422108 C350.54147106 277.132922 350.54632431 279.13162092 350.552598 281.13031483 C350.55996567 285.3167114 350.54926706 289.50257412 350.52589512 293.68890858 C350.49740759 299.05270346 350.5138121 304.41524747 350.54375744 309.77899647 C350.56183315 313.90547565 350.55607109 318.03165871 350.54311848 322.15814686 C350.53978523 324.13568743 350.54386868 326.11325497 350.55551624 328.09076405 C350.56822939 330.85597311 350.54884203 333.61916232 350.52101231 336.38422108 C350.53113346 337.19995594 350.54125462 338.0156908 350.55168247 338.85614491 C350.47293507 343.08375518 350.21906784 344.68992645 347.53546238 348.14561939 C344.14478218 350.67911859 342.24234887 350.71502084 338.0420084 350.62250233 C336.74972324 350.60638905 335.45743809 350.59027576 334.12599277 350.5736742 C332.77115808 350.53190382 331.41634037 350.48957916 330.06153965 350.44672108 C328.68723098 350.42162177 327.31287849 350.39881144 325.93849277 350.3783617 C322.58255989 350.31948569 319.22885875 350.23728528 315.87403965 350.13422108 C316.20726231 350.97195057 316.54048496 351.80968006 316.88380527 352.6727953 C318.1165126 355.77654546 319.34616328 358.88147001 320.57374668 361.98724842 C321.10605025 363.33213499 321.63957369 364.6765394 322.17433262 366.02045155 C322.94202046 367.95035325 323.70532895 369.88193681 324.46778965 371.81390858 C324.92862949 372.97648182 325.38946934 374.13905506 325.86427402 375.3368578 C326.87403965 378.13422108 326.87403965 378.13422108 326.87403965 380.13422108 C327.99898838 380.10803699 329.12393711 380.08185291 330.2829752 380.05487537 C334.46669122 379.96420363 338.65032086 379.90691071 342.83473301 379.85956287 C344.64380097 379.83445718 346.45276787 379.80036512 348.26149082 379.75702381 C350.86566716 379.69619529 353.46849996 379.66797299 356.0732584 379.64593983 C357.28135418 379.60723019 357.28135418 379.60723019 358.51385593 379.56773853 C362.80949497 379.56560512 364.38759773 379.75033341 367.88258457 382.50848866 C370.04194693 385.35560673 370.55409799 386.61048713 370.49903965 390.13422108 C370.51193027 390.95922108 370.5248209 391.78422108 370.53810215 392.63422108 C369.5545811 396.33688856 367.85296415 397.75529354 364.87403965 400.13422108 C361.87867109 400.62550871 359.45482841 400.80787676 356.46408176 400.76342678 C355.19139464 400.77432759 355.19139464 400.77432759 353.89299667 400.78544861 C351.03637743 400.80376531 348.18108961 400.7863124 345.3244791 400.76913929 C343.2613201 400.77489784 341.19816622 400.78283715 339.13502312 400.79277551 C333.4550472 400.81370855 327.77548963 400.80330419 322.09551191 400.78784442 C315.97408162 400.77656128 309.85272478 400.79397852 303.73130894 400.80774403 C292.42908386 400.82872547 281.12702991 400.82686072 269.82480904 400.81318668 C259.38430589 400.80061697 248.9438518 400.79732162 238.50334263 400.8032999 C237.46518653 400.80387279 237.46518653 400.80387279 236.40605757 400.80445725 C233.59669667 400.8060139 230.78733579 400.8076059 227.97797494 400.80925607 C201.61521978 400.8245567 175.2525499 400.81067488 148.88980789 400.78377159 C125.45970144 400.76004291 102.02973085 400.76216602 78.59962559 400.78607655 C52.28559852 400.81284026 25.97164682 400.82347166 -0.34239197 400.80801523 C-3.1466824 400.8064116 -5.95097286 400.8048474 -8.75526333 400.8032999 C-9.44576895 400.80290452 -10.13627458 400.80250913 -10.84770461 400.80210176 C-21.28254871 400.79641048 -31.71733839 400.80307304 -42.15217495 400.81569767 C-54.0151439 400.82997842 -65.87795235 400.82597073 -77.74091506 400.79929395 C-83.79720881 400.78612516 -89.85322634 400.78105568 -95.90951824 400.79753971 C-101.44870696 400.81238861 -106.98736224 400.80433453 -112.52650225 400.77765195 C-114.5351714 400.77204549 -116.5438852 400.77495553 -118.55252588 400.78703089 C-121.27433367 400.80214422 -123.9942927 400.78673874 -126.71600246 400.76342678 C-127.50361088 400.77513261 -128.29121929 400.78683844 -129.10269463 400.79889899 C-133.12619407 400.72958975 -134.92497937 400.29472168 -138.11007881 397.75114572 C-140.30036666 394.90781483 -140.80623533 393.67181984 -140.75096035 390.13422108 C-140.76385098 389.30922108 -140.7767416 388.48422108 -140.79002285 387.63422108 C-139.80193427 383.91435819 -138.13512891 382.50898082 -135.12596035 380.13422108 C-132.17873409 379.46296987 -129.33499078 379.54949985 -126.3251791 379.64593983 C-125.48880413 379.65301456 -124.65242916 379.6600893 -123.7907095 379.66737843 C-121.13069983 379.69527123 -118.47282896 379.75799627 -115.81346035 379.82172108 C-114.00554814 379.84681074 -112.19760278 379.86962274 -110.38963223 379.89008045 C-105.96758962 379.94508066 -101.54713704 380.03131465 -97.12596035 380.13422108 C-96.95797939 379.53561268 -96.78999844 378.93700428 -96.61692715 378.32025623 C-94.75503666 371.88124426 -92.47798353 365.70878037 -89.93846035 359.50922108 C-89.57043301 358.60043201 -89.20240566 357.69164295 -88.82322598 356.75531483 C-87.92812556 354.54662548 -87.02900685 352.33967059 -86.12596035 350.13422108 C-87.0388583 350.15516834 -87.95175625 350.17611561 -88.89231777 350.19769764 C-92.2936257 350.26604825 -95.69419934 350.31610437 -99.09593105 350.35394764 C-100.56544956 350.37400933 -102.03488876 350.40126586 -103.50413418 350.43597889 C-105.62176522 350.48474249 -107.73833722 350.50724269 -109.8564291 350.52484608 C-111.12897549 350.54579334 -112.40152187 350.56674061 -113.71263027 350.58832264 C-117.72007298 350.0551817 -119.32940933 349.00364112 -122.12596035 346.13422108 C-123.37583341 342.3846019 -123.28153409 338.8848328 -123.28709316 334.97845936 C-123.29205807 334.14724567 -123.29702297 333.31603199 -123.30213833 332.45963001 C-123.3167518 329.7079228 -123.32356034 326.95627323 -123.32908535 324.20453358 C-123.33483715 322.29265815 -123.34059488 320.38078275 -123.3463583 318.46890736 C-123.35686574 314.45906779 -123.3627102 310.44924826 -123.36619473 306.43939686 C-123.37168112 301.30230337 -123.39571335 296.16547472 -123.42416668 291.02846432 C-123.44279292 287.07878311 -123.44799864 283.12916573 -123.4495306 279.17944431 C-123.45255732 277.28562312 -123.4605865 275.39180305 -123.47371578 273.49802494 C-123.49077716 270.84806898 -123.48889595 268.19876051 -123.48240566 265.54877186 C-123.49162045 264.76729786 -123.50083523 263.98582386 -123.51032925 263.18066883 C-123.4755839 258.65026563 -122.96594506 255.71415489 -120.12596035 252.13422108 C-116.38917605 249.64303155 -114.38144216 249.92769848 -109.93846035 250.00922108 C-108.66615566 250.02726795 -107.39385098 250.04531483 -106.0829916 250.06390858 C-105.10717129 250.0871117 -104.13135098 250.11031483 -103.12596035 250.13422108 C-103.1416708 249.34885975 -103.15738125 248.56349842 -103.17356777 247.75433826 C-103.23665338 244.13104172 -103.27518246 240.50786134 -103.31346035 236.88422108 C-103.33859707 235.6492992 -103.36373379 234.41437733 -103.38963223 233.14203358 C-103.47852529 221.88224525 -101.64631546 211.96975001 -96.43846035 201.94672108 C-96.08743252 201.26601551 -95.73640469 200.58530994 -95.37473965 199.88397694 C-87.37972099 184.90693976 -74.04881978 176.15070562 -58.12596035 171.13422108 C-56.79427067 170.79438069 -55.46121339 170.45977936 -54.12596035 170.13422108 C-54.123572 169.53714218 -54.12118364 168.94006329 -54.11872292 168.32489109 C-54.05940728 153.74985085 -53.98375239 139.17495747 -53.89024544 124.60009861 C-53.84541269 117.55159221 -53.80596975 110.50313493 -53.7795248 103.45453358 C-53.75396618 96.64630837 -53.71297801 89.83831226 -53.66277409 83.0302248 C-53.64614935 80.438878 -53.63460783 77.84749322 -53.62834644 75.25610065 C-53.61865776 71.61335423 -53.59054042 67.97116474 -53.5583334 64.32855701 C-53.56048603 62.73819126 -53.56048603 62.73819126 -53.56268215 61.11569691 C-53.43416508 50.76960796 -51.21639031 41.14231681 -46.43846035 31.94672108 C-46.08743252 31.26601551 -45.73640469 30.58530994 -45.37473965 29.88397694 C-37.37972099 14.90693976 -24.04881978 6.15070562 -8.12596035 1.13422108 C-5.34626659 0.34154271 -2.88855065 0.00732499 0 0 Z M-16.12596035 28.13422108 C-17.03346035 28.71172108 -17.94096035 29.28922108 -18.87596035 29.88422108 C-25.72772344 36.73598417 -30.04308228 44.66424126 -32.12596035 54.13422108 C-32.12596035 56.11422108 -32.12596035 58.09422108 -32.12596035 60.13422108 C63.90403965 60.13422108 159.93403965 60.13422108 258.87403965 60.13422108 C258.87403965 48.60907949 255.85813341 40.49775692 247.87403965 32.13422108 C237.30405646 22.04378344 225.01106366 19.97311225 210.90644932 20.00050831 C210.03828406 19.99824275 209.17011879 19.9959772 208.27564549 19.99364299 C205.38492717 19.9873449 202.49425624 19.98812964 199.60353184 19.98895741 C197.52332594 19.98596329 195.44312061 19.98256017 193.36291599 19.97877979 C187.7243311 19.96996106 182.08576138 19.96760257 176.44717026 19.96696401 C172.92061741 19.96625227 169.39406841 19.96411559 165.86751652 19.96146679 C153.55377044 19.95222022 141.24003518 19.94813102 128.92628574 19.94891834 C117.46561872 19.94951887 106.00499881 19.93897024 94.54434371 19.92317468 C84.69014635 19.91007937 74.83596435 19.90473529 64.98175836 19.90537375 C59.10282531 19.90562816 53.22393415 19.90280835 47.3450098 19.8921957 C41.81281106 19.88248127 36.28069394 19.88245844 30.74849224 19.88971233 C28.72492764 19.89075404 26.70135786 19.88842004 24.67780209 19.88235188 C9.72672577 19.84044215 -3.15873522 19.83693465 -16.12596035 28.13422108 Z M-32.12596035 80.13422108 C-32.12596035 94.98422108 -32.12596035 109.83422108 -32.12596035 125.13422108 C-28.49596035 122.82422108 -24.86596035 120.51422108 -21.12596035 118.13422108 C-17.7079916 116.42718983 -17.7079916 116.42718983 -14.93846035 115.32172108 C-14.01678066 114.94402576 -13.09510098 114.56633045 -12.1454916 114.17718983 C-3.19369742 111.08517295 5.12437052 110.80763548 14.5107584 110.79828358 C16.03759983 110.79184261 17.56444007 110.78511332 19.09127903 110.77811146 C22.28443857 110.7661788 25.47749027 110.76242632 28.67067051 110.76361561 C32.72748056 110.76381821 36.78358548 110.73655946 40.84022903 110.70207119 C43.99331824 110.67963741 47.14624241 110.67578311 50.29940319 110.67683506 C51.79307889 110.67450212 53.28676079 110.66581161 54.78035641 110.65017033 C73.58074571 110.47176018 89.16385972 116.13430165 102.87403965 129.13422108 C104.6385683 131.26151709 106.23641359 133.39207814 107.7529459 135.70062733 C108.12290684 136.17371326 108.49286777 136.6467992 108.87403965 137.13422108 C109.53403965 137.13422108 110.19403965 137.13422108 110.87403965 137.13422108 C112.06883331 135.67291956 113.20419885 134.16285785 114.31153965 132.63422108 C123.25072938 121.20563673 136.66867235 113.76576747 150.87403965 111.13422108 C156.73389352 110.69047633 162.57403536 110.66244064 168.4482584 110.66547108 C170.14298847 110.65835013 171.83771618 110.6506484 173.53244114 110.64239979 C177.0717499 110.62901929 180.61083587 110.62735613 184.1501627 110.63324451 C188.64056104 110.6391224 193.12987139 110.60859855 197.62005997 110.56812763 C201.11814012 110.54201444 204.61596683 110.53939457 208.11413097 110.54301929 C209.76721323 110.54134878 211.42030993 110.5319108 213.07329464 110.51387501 C228.06725506 110.36829662 241.05413748 112.76966226 253.63966465 121.58343983 C256.08091911 123.35648601 256.08091911 123.35648601 259.87403965 125.13422108 C259.87403965 110.28422108 259.87403965 95.43422108 259.87403965 80.13422108 C163.51403965 80.13422108 67.15403965 80.13422108 -32.12596035 80.13422108 Z M-22.87596035 146.00922108 C-28.73199048 153.02578565 -32.12596035 160.90257453 -32.12596035 170.13422108 C11.10403965 170.13422108 54.33403965 170.13422108 98.87403965 170.13422108 C97.75117888 158.90561341 94.64118105 148.7913596 85.87403965 141.13422108 C73.53576622 131.92856224 62.06540896 129.98350126 47.01466465 129.96625233 C45.47621891 129.96125973 45.47621891 129.96125973 43.90669346 129.95616627 C41.74509724 129.95112483 39.58349331 129.94875708 37.42189121 129.94891834 C34.1479949 129.94673704 30.87443878 129.92856549 27.60060215 129.9096117 C7.93029712 129.85573434 -8.76051339 130.69245948 -22.87596035 146.00922108 Z M132.4638834 142.31390858 C125.28820343 150.52979768 120.87403965 159.223995 120.87403965 170.13422108 C166.41403965 170.13422108 211.95403965 170.13422108 258.87403965 170.13422108 C257.75117888 158.90561341 254.64118105 148.7913596 245.87403965 141.13422108 C232.92833683 131.47535558 221.01567795 129.98154739 205.26466465 129.96625233 C204.0614658 129.96292393 202.85826694 129.95959553 201.61860752 129.95616627 C199.08038304 129.95111942 196.54215196 129.94875725 194.00392246 129.94891834 C190.15061928 129.94673613 186.29760462 129.92856777 182.44435215 129.9096117 C179.96779062 129.90667634 177.49122774 129.9046925 175.01466465 129.90375233 C173.87676487 129.89656681 172.73886509 129.88938129 171.5664835 129.88197803 C157.20884586 129.92233965 143.35936444 132.13768912 132.4638834 142.31390858 Z M-66.12596035 198.13422108 C-67.03346035 198.71172108 -67.94096035 199.28922108 -68.87596035 199.88422108 C-76.28928971 207.29755044 -78.702996 213.86532803 -82.12596035 224.13422108 C-82.12596035 232.71422108 -82.12596035 241.29422108 -82.12596035 250.13422108 C47.23403965 250.13422108 176.59403965 250.13422108 309.87403965 250.13422108 C310.36931014 223.00234439 310.36931014 223.00234439 297.11622715 201.17718983 C285.527025 190.61769031 272.00933423 189.98106001 257.1100626 190.00050831 C255.8335421 189.99824275 254.5570216 189.9959772 253.24181867 189.99364299 C249.71436169 189.98754896 246.18692849 189.98765574 242.65946746 189.98883736 C238.84884164 189.98904198 235.03822334 189.98351681 231.22760105 189.97877979 C223.76766818 189.9704858 216.30774322 189.96772552 208.84780613 189.96716741 C202.78164155 189.96669165 196.71547958 189.9646339 190.64931583 189.96146679 C173.43672127 189.95266357 156.22413293 189.94804688 139.01153609 189.94879726 C138.08428238 189.94883722 137.15702867 189.94887718 136.20167637 189.94891834 C135.27328568 189.94895922 134.344895 189.9490001 133.38837126 189.94904222 C118.34613555 189.94944858 103.30392489 189.93988073 88.26169643 189.92577998 C72.80281379 189.91140342 57.34394336 189.9045105 41.88505387 189.90537375 C33.21155918 189.90570528 24.53809075 189.90297745 15.86460209 189.8921957 C8.47932506 189.88307385 1.09408618 189.88092926 -6.29119405 189.88770512 C-10.05570833 189.89096186 -13.82014947 189.89105777 -17.58465672 189.88235188 C-21.67450893 189.87299126 -25.76419305 189.87928498 -29.85404873 189.88698292 C-31.62023237 189.87926757 -31.62023237 189.87926757 -33.42209649 189.87139636 C-45.76289148 189.92255903 -55.64676966 191.42894328 -66.12596035 198.13422108 Z M-102.12596035 270.13422108 C-102.12596035 276.73422108 -102.12596035 283.33422108 -102.12596035 290.13422108 C40.43403965 290.13422108 182.99403965 290.13422108 329.87403965 290.13422108 C329.87403965 283.53422108 329.87403965 276.93422108 329.87403965 270.13422108 C187.31403965 270.13422108 44.75403965 270.13422108 -102.12596035 270.13422108 Z M-102.12596035 310.13422108 C-102.12596035 316.73422108 -102.12596035 323.33422108 -102.12596035 330.13422108 C40.43403965 330.13422108 182.99403965 330.13422108 329.87403965 330.13422108 C329.87403965 323.53422108 329.87403965 316.93422108 329.87403965 310.13422108 C187.31403965 310.13422108 44.75403965 310.13422108 -102.12596035 310.13422108 Z M-63.12596035 350.13422108 C-64.6974244 353.9225719 -66.26561471 357.71202981 -67.82566738 361.50507069 C-68.35730427 362.79491454 -68.89082057 364.08398542 -69.42625332 365.37225819 C-70.19568422 367.22445965 -70.9577977 369.07969554 -71.71971035 370.93500233 C-72.18055019 372.05044422 -72.64139004 373.16588612 -73.11619473 374.31512928 C-74.2945649 377.10585611 -74.2945649 377.10585611 -74.12596035 380.13422108 C-65.21596035 380.13422108 -56.30596035 380.13422108 -47.12596035 380.13422108 C-45.5544963 376.34587025 -43.98630599 372.55641234 -42.42625332 368.76337147 C-41.89461643 367.47352761 -41.36110013 366.18445673 -40.82566738 364.89618397 C-40.05623648 363.0439825 -39.294123 361.18874661 -38.53221035 359.33343983 C-37.84095058 357.66027699 -37.84095058 357.66027699 -37.13572598 355.95331287 C-35.9573558 353.16258604 -35.9573558 353.16258604 -36.12596035 350.13422108 C-45.03596035 350.13422108 -53.94596035 350.13422108 -63.12596035 350.13422108 Z M-13.12596035 350.13422108 C-20.63526062 364.74062482 -20.63526062 364.74062482 -24.12596035 380.13422108 C67.61403965 380.13422108 159.35403965 380.13422108 253.87403965 380.13422108 C251.78520077 369.69002668 246.82973296 360.02345436 242.87403965 350.13422108 C158.39403965 350.13422108 73.91403965 350.13422108 -13.12596035 350.13422108 Z M265.87403965 350.13422108 C266.68236361 354.17584088 267.63140725 357.32012845 269.1591959 361.09125233 C269.56275303 362.09390125 269.96631016 363.09655018 270.38209629 364.12958241 C270.8950626 365.38923817 271.40802891 366.64889393 271.93653965 367.94672108 C273.56591465 371.96859608 275.19528965 375.99047108 276.87403965 380.13422108 C285.78403965 380.13422108 294.69403965 380.13422108 303.87403965 380.13422108 C303.06571569 376.09260127 302.11667205 372.94831371 300.5888834 369.17718983 C299.98354771 367.67321644 299.98354771 367.67321644 299.36598301 366.13885975 C298.8530167 364.87920399 298.34005039 363.61954823 297.81153965 362.32172108 C296.18216465 358.29984608 294.55278965 354.27797108 292.87403965 350.13422108 C283.96403965 350.13422108 275.05403965 350.13422108 265.87403965 350.13422108 Z " fill="#000000" transform="translate(141.12596035003662,55.86577892303467)"/>
</svg>
