<?xml version="1.0" encoding="UTF-8"?>
<svg version="1.1" xmlns="http://www.w3.org/2000/svg" width="1024" height="1024">
<path d="M0 0 C337.92 0 675.84 0 1024 0 C1024 337.92 1024 675.84 1024 1024 C686.08 1024 348.16 1024 0 1024 C0 686.08 0 348.16 0 0 Z " fill="#FDFEFE" transform="translate(0,0)"/>
<path d="M0 0 C12.41902347 10.09924361 22.87878331 20.83854974 29.20831299 35.70362854 C30.71240327 39.15844075 32.33804315 42.55492285 33.95703125 45.95703125 C34.33112625 46.74550949 34.70522125 47.53398773 35.09065247 48.34635925 C36.31147923 50.91784855 37.53449952 53.48828637 38.7578125 56.05859375 C39.38816406 57.38466141 39.38816406 57.38466141 40.03125 58.73751831 C46.47511935 72.29176424 52.98233004 85.81413801 59.546875 99.31030273 C63.9151179 108.2914592 68.24825148 117.28847577 72.53515625 126.30883789 C74.99136787 131.46797881 77.52274416 136.57783276 80.14575195 141.65454102 C81.0703125 143.68359375 81.0703125 143.68359375 81.0703125 145.68359375 C80.42630997 145.69390121 79.78230743 145.70420868 79.11878967 145.71482849 C72.38598562 145.82342509 65.65330116 145.93797618 58.9206543 146.0559082 C56.41156529 146.0990875 53.90245011 146.14077376 51.39331055 146.1809082 C47.77644989 146.23902479 44.15971892 146.30259792 40.54296875 146.3671875 C38.87368065 146.39225624 38.87368065 146.39225624 37.17066956 146.41783142 C31.72463176 146.52026481 26.3929217 146.79360074 20.98777771 147.46766663 C18.48696448 147.74928499 16.02254763 147.78151255 13.5078125 147.74609375 C12.66089844 147.73707031 11.81398438 147.72804688 10.94140625 147.71875 C10.32394531 147.70714844 9.70648437 147.69554687 9.0703125 147.68359375 C2.00770802 132.02703225 -5.00255969 116.35742017 -11.71386719 100.54638672 C-13.91303745 95.3681798 -16.12088386 90.19368801 -18.33248901 85.02078247 C-19.08793162 83.25208957 -19.84101075 81.48238775 -20.59399414 79.71264648 C-23.5196343 72.8656672 -26.56004267 66.0861132 -29.72387695 59.34570312 C-30.9296875 56.68359375 -30.9296875 56.68359375 -31.9296875 53.68359375 C-36.67263122 63.5216429 -40.66130176 73.52852112 -44.4921875 83.74609375 C-45.59494606 86.6755076 -46.70066919 89.60378623 -47.80859375 92.53125 C-48.07411041 93.23391998 -48.33962708 93.93658997 -48.6131897 94.66055298 C-50.58352279 99.84616508 -52.6777731 104.97049567 -54.86694336 110.06811523 C-56.01958695 112.9048418 -56.98911763 115.7702427 -57.9296875 118.68359375 C-59.5607458 123.72030177 -61.49894698 128.54776548 -63.578125 133.4140625 C-65.12603262 137.15856735 -66.53181922 140.94371338 -67.9296875 144.74609375 C-70.02320949 150.4269739 -72.3053339 155.94822032 -74.9296875 161.41015625 C-76.08315593 163.8249231 -76.08315593 163.8249231 -76.6796875 167.18359375 C-77.9296875 169.68359375 -77.9296875 169.68359375 -79.65795898 170.45654297 C-80.38571533 170.6732666 -81.11347168 170.88999023 -81.86328125 171.11328125 C-82.67748535 171.36625977 -83.49168945 171.61923828 -84.33056641 171.87988281 C-85.61713135 172.27771973 -85.61713135 172.27771973 -86.9296875 172.68359375 C-101.28920964 177.56724601 -115.26382991 183.09950769 -128.9296875 189.68359375 C-129.64833984 190.02922363 -130.36699219 190.37485352 -131.10742188 190.73095703 C-145.4891864 197.53226908 -145.4891864 197.53226908 -154.9296875 209.68359375 C-155.37308669 213.23078728 -155.31863429 215.02407527 -153.4921875 218.12109375 C-150.37269049 220.02322607 -148.31900014 219.88893602 -144.75561523 219.4128418 C-139.22095632 217.984589 -134.25836064 215.11785355 -129.23284912 212.45556641 C-125.70119036 210.59015683 -122.1413904 208.78069893 -118.578125 206.9765625 C-117.85452789 206.6101767 -117.13093079 206.24379089 -116.38540649 205.86630249 C-93.89802112 194.5847332 -69.7517335 185.26036293 -45.4140625 178.88671875 C-42.39765125 178.09514091 -39.41978466 177.22970934 -36.4453125 176.29296875 C10.2952663 161.75778876 81.27965416 148.78826458 127.0703125 171.68359375 C129.49378757 173.20553609 131.06816295 174.57606791 133.0703125 176.68359375 C133.0703125 178.00359375 133.0703125 179.32359375 133.0703125 180.68359375 C131.7915625 180.73257813 130.5128125 180.7815625 129.1953125 180.83203125 C127.48696028 180.90712366 125.77862791 180.98266862 124.0703125 181.05859375 C122.81154297 181.105 122.81154297 181.105 121.52734375 181.15234375 C116.11478272 181.40409077 111.28385386 182.19918267 106.0703125 183.68359375 C112.40065736 195.37883719 118.92896809 206.93774723 125.66455078 218.40429688 C130.48746957 226.63478372 135.1559599 234.94461443 139.79321289 243.28076172 C144.62540977 251.94421502 149.59889782 260.52038456 154.62890625 269.0703125 C155.18191406 270.01132812 155.73492188 270.95234375 156.3046875 271.921875 C156.79163086 272.74727783 157.27857422 273.57268066 157.78027344 274.4230957 C161.01322771 280.08810774 161.76120251 284.13608229 161.0703125 290.68359375 C159.46906793 294.44651848 157.52475439 296.52456757 154.0703125 298.68359375 C151.06209356 299.6863334 149.00182606 299.82754786 145.85546875 299.8605957 C144.79005859 299.87343094 143.72464844 299.88626617 142.62695312 299.89949036 C141.47388672 299.90687729 140.32082031 299.91426422 139.1328125 299.921875 C137.94236328 299.92994675 136.75191406 299.93801849 135.52539062 299.94633484 C133.00017758 299.96017867 130.47494579 299.97089947 127.94970703 299.97875977 C124.11323751 299.99590195 120.27764558 300.03977896 116.44140625 300.08398438 C113.98438132 300.09411774 111.52734907 300.10263182 109.0703125 300.109375 C107.36500366 300.13563713 107.36500366 300.13563713 105.62524414 300.16242981 C95.85633352 300.13622507 87.30055133 297.8826811 79.3203125 292.05859375 C78.47984375 291.46820312 77.639375 290.8778125 76.7734375 290.26953125 C69.61032668 283.41695992 65.29477117 274.6808977 61.1328125 265.80859375 C60.59068115 264.66890137 60.0485498 263.52920898 59.48999023 262.35498047 C52.98570157 248.61238991 46.89292769 234.67940678 40.76869202 220.76467896 C37.94612832 214.36834014 35.02808721 208.01862696 32.0703125 201.68359375 C24.22600734 202.17334402 17.4937272 204.3139563 10.1328125 206.99609375 C8.90715576 207.43977295 7.68149902 207.88345215 6.41870117 208.34057617 C-39.15093725 225.07385754 -82.79512956 250.23688301 -118.34057617 283.42602539 C-121.73626966 286.59346373 -125.15557285 289.72053623 -128.6796875 292.74609375 C-129.47890625 293.43832031 -130.278125 294.13054687 -131.1015625 294.84375 C-138.68543741 299.77745868 -146.4963417 300.15073852 -155.33984375 300.15234375 C-156.50672226 300.15995728 -157.67360077 300.1675708 -158.87583923 300.17541504 C-161.33069733 300.18617147 -163.78560101 300.1890874 -166.24047852 300.18457031 C-169.98466317 300.18359571 -173.72681246 300.22532077 -177.47070312 300.26953125 C-179.86457909 300.27473727 -182.25846213 300.27742646 -184.65234375 300.27734375 C-185.76400406 300.29373901 -186.87566437 300.31013428 -188.02101135 300.32702637 C-194.95562725 300.26565544 -199.57025816 299.21367606 -204.9296875 294.68359375 C-209.21341568 290.12349601 -209.54253618 284.52565297 -209.43969727 278.46533203 C-208.83230037 273.96146512 -207.37269299 270.51529777 -205.453125 266.43359375 C-205.09637192 265.65394257 -204.73961884 264.87429138 -204.37205505 264.0710144 C-203.237311 261.60240673 -202.08590459 259.14220964 -200.9296875 256.68359375 C-200.56418793 255.90260315 -200.19868835 255.12161255 -199.82211304 254.31695557 C-197.6175876 249.61266289 -195.38901679 244.92014308 -193.14962769 240.23236084 C-185.60489851 224.46655935 -185.60489851 224.46655935 -178.3671875 208.55859375 C-174.34159961 199.46074486 -170.06887036 190.48371153 -165.8046875 181.49609375 C-160.25202601 169.78785136 -154.77206514 158.05184381 -149.4296875 146.24609375 C-149.12629456 145.57575104 -148.82290161 144.90540833 -148.51031494 144.2147522 C-147.27064394 141.47526519 -146.03108502 138.73572753 -144.7918396 135.99604797 C-141.11722871 127.87840109 -137.40082143 119.77999734 -133.6796875 111.68359375 C-133.33139893 110.92556458 -132.98311035 110.1675354 -132.62426758 109.38653564 C-128.41440204 100.22661109 -124.18767012 91.0746088 -119.9453125 81.9296875 C-119.52626648 81.02626617 -119.10722046 80.12284485 -118.67547607 79.19204712 C-116.65640113 74.8399976 -114.63573781 70.48869681 -112.61230469 66.13867188 C-111.86373748 64.52743424 -111.11536272 62.91610719 -110.3671875 61.3046875 C-110.00308777 60.52115906 -109.63898804 59.73763062 -109.26385498 58.93035889 C-107.31894249 54.7314123 -105.40449623 50.52083204 -103.52539062 46.29199219 C-103.12747314 45.39811295 -102.72955566 44.5042337 -102.31958008 43.58326721 C-101.56455657 41.88260509 -100.81344057 40.18020019 -100.06713867 38.47569275 C-94.88136684 26.79234435 -87.97495476 16.76054321 -78.9296875 7.68359375 C-78.24519531 6.97589844 -77.56070313 6.26820313 -76.85546875 5.5390625 C-56.54879711 -14.09197127 -22.80153332 -16.68933522 0 0 Z " fill="#31A4D9" transform="translate(535.9296875,364.31640625)"/>
<path d="M0 0 C0.66 0.33 1.32 0.66 2 1 C1.45472656 1.35191406 0.90945313 1.70382812 0.34765625 2.06640625 C-9.95898179 8.60141247 -9.95898179 8.60141247 -18.625 17.0625 C-20.59082904 19.49392013 -22.28978193 21.13250928 -24.6875 23.0625 C-27.64550326 25.50523817 -28.69570399 27.36660398 -30 31 C-32.625 33.8125 -32.625 33.8125 -35 36 C-35 28.18714326 -25.62890138 19.16623425 -20.3125 13.6875 C-14.42744798 7.82551907 -7.62223214 3.30716684 0 0 Z " fill="#57BFE9" transform="translate(477,358)"/>
<path d="M0 0 C0.66 0 1.32 0 2 0 C1.25353247 5.78512332 -1.46111708 10.95605577 -4.06640625 16.109375 C-5.08904978 18.09915539 -5.08904978 18.09915539 -6 20.6875 C-7 23 -7 23 -9 24 C-8.49755478 17.99458338 -6.60113251 13.43116864 -3.9375 8.0625 C-3.37192383 6.89364258 -3.37192383 6.89364258 -2.79492188 5.70117188 C-1.87184945 3.79660471 -0.93710938 1.89769987 0 0 Z " fill="#269CCF" transform="translate(366,554)"/>
<path d="M0 0 C1.33836305 4.01508916 0.36510316 6.04120083 -1 10 C-1.94726954 11.69719127 -2.94228261 13.36935236 -4 15 C-4.68268138 16.32520503 -5.3507041 17.65812182 -6 19 C-6.66666667 20.33333333 -7.33333333 21.66666667 -8 23 C-8.66 23 -9.32 23 -10 23 C-8.41980408 17.7936703 -6.22115005 13.01626689 -3.875 8.125 C-3.50246094 7.34125 -3.12992187 6.5575 -2.74609375 5.75 C-1.83381003 3.83186501 -0.91733016 1.91572671 0 0 Z " fill="#4DB8E2" transform="translate(424,429)"/>
<path d="M0 0 C0.66 0 1.32 0 2 0 C1.25 6.75 1.25 6.75 -1 9 C-1.71408334 10.98356483 -2.38617742 12.98315437 -3 15 C-3.66 15 -4.32 15 -5 15 C-4.43174347 9.45949887 -2.37113483 4.96284034 0 0 Z " fill="#1B96CC" transform="translate(334,623)"/>
<path d="M0 0 C0.33 0.99 0.66 1.98 1 3 C0.01 3.495 0.01 3.495 -1 4 C-0.67 2.68 -0.34 1.36 0 0 Z M-3 4 C-2.34 4.33 -1.68 4.66 -1 5 C-2.06640625 7.48828125 -2.06640625 7.48828125 -3.1328125 9.9765625 C-3.41898437 10.64429688 -3.70515625 11.31203125 -4 12 C-4.5625 13.3125 -5.125 14.625 -5.6875 15.9375 C-6.120625 16.948125 -6.55375 17.95875 -7 19 C-7.33 19 -7.66 19 -8 19 C-8.78287497 12.89357521 -6.10825151 8.99540421 -3 4 Z " fill="#1592CA" transform="translate(350,593)"/>
<path d="M0 0 C0.66 0.33 1.32 0.66 2 1 C1.39671875 1.39832031 0.7934375 1.79664063 0.171875 2.20703125 C-0.62734375 2.73683594 -1.4265625 3.26664062 -2.25 3.8125 C-3.03890625 4.33457031 -3.8278125 4.85664063 -4.640625 5.39453125 C-7.01162637 6.94294153 -7.01162637 6.94294153 -9.046875 8.76171875 C-11 10 -11 10 -13.25 9.6875 C-13.8275 9.460625 -14.405 9.23375 -15 9 C-13.25156882 7.87256334 -11.5011906 6.7481458 -9.75 5.625 C-8.77546875 4.99851562 -7.8009375 4.37203125 -6.796875 3.7265625 C-2.18608936 0.88023952 -2.18608936 0.88023952 0 0 Z " fill="#63C4E9" transform="translate(477,358)"/>
<path d="M0 0 C1.31712811 3.62210231 0.68301982 5.67244777 -0.75 9.1875 C-1.26820313 10.50814453 -1.26820313 10.50814453 -1.796875 11.85546875 C-3 14 -3 14 -6 15 C-4.40109514 9.80355921 -2.25861997 4.93387858 0 0 Z " fill="#55BBE4" transform="translate(433,409)"/>
<path d="M0 0 C-3.63 1.98 -7.26 3.96 -11 6 C-11.66 5.34 -12.32 4.68 -13 4 C-11.40233897 3.13372601 -9.79660056 2.28233535 -8.1875 1.4375 C-7.29417969 0.96183594 -6.40085937 0.48617187 -5.48046875 -0.00390625 C-3 -1 -3 -1 0 0 Z " fill="#219ED1" transform="translate(403,581)"/>
<path d="M0 0 C0.66 0 1.32 0 2 0 C2.99 2.97 3.98 5.94 5 9 C2 8 2 8 0.8125 6.1875 C0 4 0 4 0 0 Z " fill="#178EC8" transform="translate(600,632)"/>
<path d="M0 0 C0.75 1.6875 0.75 1.6875 1 4 C-1.13381449 7.2769294 -2.25018012 8.75006004 -6 10 C-4.6302836 6.00499382 -2.74277578 3.19990508 0 0 Z " fill="#53BDE7" transform="translate(447,384)"/>
<path d="M0 0 C0.93065133 2.60582371 1.14917407 3.64198224 0.0625 6.25 C-0.4634375 7.11625 -0.4634375 7.11625 -1 8 C-1.66 8 -2.32 8 -3 8 C-2.45276317 4.62537285 -1.9451 2.91765 0 0 Z " fill="#1393CA" transform="translate(339,614)"/>
<path d="M0 0 C-1.1875 1.5 -1.1875 1.5 -3 3 C-5.6875 3.1875 -5.6875 3.1875 -8 3 C-8.33 2.34 -8.66 1.68 -9 1 C-5.92677456 0.08941469 -3.19902639 -0.08886184 0 0 Z " fill="#44AFDC" transform="translate(517,537)"/>
</svg>
